<?xml version="1.0" encoding="UTF-8" standalone="no"?>
<!DOCTYPE svg PUBLIC "-//W3C//DTD SVG 1.1//EN" "http://www.w3.org/Graphics/SVG/1.1/DTD/svg11.dtd">
<svg xmlns="http://www.w3.org/2000/svg" version="1.1" viewBox="0.00 0.00 223.00 223.00">
<g stroke-width="2.00" fill="none" stroke-linecap="butt">
<path stroke="#2c6a22" vector-effect="non-scaling-stroke" d="
  M 115.70 50.76
  L 115.71 52.32
  A 0.92 0.92 0.0 0 0 117.25 52.99
  Q 127.10 43.80 139.99 39.71
  A 0.35 0.34 1.6 0 1 140.42 40.16
  C 137.82 46.95 130.61 52.18 124.29 54.97
  A 0.84 0.84 0.0 0 0 124.26 56.49
  C 129.79 59.20 135.27 63.33 137.68 69.12
  A 0.66 0.66 0.0 0 1 136.79 69.97
  L 114.97 59.79"
/>
<path stroke="#4a7c23" vector-effect="non-scaling-stroke" d="
  M 108.06 59.77
  Q 96.93 65.55 85.85 69.73
  A 0.50 0.50 0.0 0 1 85.23 69.04
  C 88.88 62.00 93.77 59.53 100.32 55.76
  Q 100.86 55.44 100.27 55.22
  Q 89.23 51.22 83.12 41.25
  Q 82.36 40.01 83.75 40.44
  Q 96.34 44.29 106.63 52.42
  A 0.70 0.70 0.0 0 0 107.72 52.11
  Q 107.81 51.84 107.72 51.60"
/>
<path stroke="#cb1726" vector-effect="non-scaling-stroke" d="
  M 140.99 88.40
  Q 142.28 92.63 138.81 95.80
  Q 138.43 96.15 138.33 96.66
  Q 137.70 99.83 135.12 101.49"
/>
<path stroke="#cb1726" vector-effect="non-scaling-stroke" d="
  M 128.45 101.68
  Q 127.07 104.26 127.10 106.99
  Q 127.10 107.41 126.73 107.60
  Q 125.57 108.19 125.12 108.88
  Q 120.67 115.57 114.78 121.09"
/>
<path stroke="#cb1726" vector-effect="non-scaling-stroke" d="
  M 107.99 127.11
  L 103.50 131.02
  Q 103.40 131.10 103.30 131.17
  Q 102.90 131.42 102.82 131.88
  Q 102.73 132.34 102.38 132.66
  Q 98.27 136.52 93.70 138.23"
/>
<path stroke="#cb1726" vector-effect="non-scaling-stroke" d="
  M 87.97 149.18
  Q 83.44 154.48 78.41 159.40
  C 76.76 161.02 74.62 162.16 72.66 163.56"
/>
<path stroke="#8d0f20" vector-effect="non-scaling-stroke" d="
  M 174.37 85.72
  Q 169.14 93.97 166.02 102.96
  Q 165.78 103.66 165.00 103.82
  Q 164.85 103.85 164.87 103.70
  Q 164.88 103.57 164.83 103.43
  Q 164.75 103.23 164.57 103.18
  Q 164.34 103.12 163.95 103.16"
/>
<path stroke="#8d0f20" vector-effect="non-scaling-stroke" d="
  M 160.27 109.19
  Q 160.44 111.12 159.43 112.28
  Q 159.37 112.34 159.36 112.26
  L 159.33 111.89
  Q 159.28 111.41 159.01 111.81
  Q 156.75 115.00 154.24 117.99
  Q 154.02 118.26 154.18 118.54
  Q 154.37 118.86 153.99 118.89
  L 152.76 118.99"
/>
<path stroke="#8d0f20" vector-effect="non-scaling-stroke" d="
  M 146.95 124.40
  Q 146.29 129.55 141.76 133.74
  Q 141.37 134.10 141.31 134.63
  Q 141.21 135.42 140.58 135.38
  Q 140.10 135.34 139.84 135.76
  Q 138.02 138.72 135.06 140.30"
/>
<path stroke="#8d0f20" vector-effect="non-scaling-stroke" d="
  M 128.45 146.57
  Q 124.41 156.61 114.71 160.98"
/>
<path stroke="#8d0f20" vector-effect="non-scaling-stroke" d="
  M 109.46 170.93
  Q 109.25 171.60 109.50 172.31
  Q 109.68 172.79 109.37 173.19
  Q 104.40 179.64 97.83 184.49
  Q 97.42 184.80 96.91 184.85
  L 94.40 185.09"
/>
<path stroke="#f58d92" vector-effect="non-scaling-stroke" d="
  M 114.7577 86.1213
  A 2.92 2.92 0.0 0 0 111.8839 83.1558
  L 111.2440 83.1458
  A 2.92 2.92 0.0 0 0 108.2785 86.0196
  L 108.1623 93.4187
  A 2.92 2.92 0.0 0 0 111.0361 96.3842
  L 111.6760 96.3942
  A 2.92 2.92 0.0 0 0 114.6415 93.5204
  L 114.7577 86.1213"
/>
</g>
<path fill="#003433" d="
  M 115.70 50.76
  L 115.71 52.32
  A 0.92 0.92 0.0 0 0 117.25 52.99
  Q 127.10 43.80 139.99 39.71
  A 0.35 0.34 1.6 0 1 140.42 40.16
  C 137.82 46.95 130.61 52.18 124.29 54.97
  A 0.84 0.84 0.0 0 0 124.26 56.49
  C 129.79 59.20 135.27 63.33 137.68 69.12
  A 0.66 0.66 0.0 0 1 136.79 69.97
  L 114.97 59.79
  Q 110.51 58.00 108.06 59.77
  Q 96.93 65.55 85.85 69.73
  A 0.50 0.50 0.0 0 1 85.23 69.04
  C 88.88 62.00 93.77 59.53 100.32 55.76
  Q 100.86 55.44 100.27 55.22
  Q 89.23 51.22 83.12 41.25
  Q 82.36 40.01 83.75 40.44
  Q 96.34 44.29 106.63 52.42
  A 0.70 0.70 0.0 0 0 107.72 52.11
  Q 107.81 51.84 107.72 51.60
  Q 108.18 50.99 108.02 49.99
  C 106.81 42.78 101.60 15.81 107.35 11.05
  C 111.49 7.63 122.32 11.44 119.82 17.33
  Q 117.19 23.54 116.61 32.00
  Q 115.99 41.11 115.70 50.76
  Z"
/>
<path fill="#003433" d="
  M 55.99 40.13
  C 49.90 39.94 38.10 37.80 38.02 47.76
  Q 37.81 74.27 37.77 100.83
  C 37.76 106.73 36.56 111.56 30.39 112.73
  C 24.24 113.90 19.28 109.87 19.28 103.50
  Q 19.28 74.50 19.54 45.50
  Q 19.62 36.08 26.07 29.31
  C 35.02 19.92 45.23 21.34 57.06 21.35
  A 0.72 0.72 0.0 0 1 57.76 22.26
  Q 55.63 30.01 57.86 37.72
  A 1.89 1.89 0.0 0 1 55.99 40.13
  Z"
/>
<path fill="#003433" d="
  M 185.31 46.99
  C 185.34 39.03 172.15 39.62 166.99 40.20
  A 1.77 1.77 0.0 0 1 165.07 38.06
  Q 166.83 30.17 165.24 22.29
  A 0.75 0.75 0.0 0 1 165.98 21.39
  Q 172.74 21.35 179.73 21.37
  C 190.59 21.40 199.39 29.63 202.73 39.32
  Q 203.99 42.99 204.00 48.93
  Q 204.05 75.01 204.04 101.08
  Q 204.04 105.55 202.97 107.74
  C 199.62 114.58 189.33 115.02 186.16 107.69
  Q 185.37 105.87 185.35 102.20
  Q 185.22 74.59 185.31 46.99
  Z"
/>
<path fill="#94c312" d="
  M 107.72 51.60
  Q 107.81 51.84 107.72 52.11
  A 0.70 0.70 0.0 0 1 106.63 52.42
  Q 96.34 44.29 83.75 40.44
  Q 82.36 40.01 83.12 41.25
  Q 89.23 51.22 100.27 55.22
  Q 100.86 55.44 100.32 55.76
  C 93.77 59.53 88.88 62.00 85.23 69.04
  A 0.50 0.50 0.0 0 0 85.85 69.73
  Q 96.93 65.55 108.06 59.77
  Q 103.05 77.80 85.34 79.73
  C 80.03 80.31 75.49 79.09 76.87 72.48
  Q 78.23 65.96 81.68 60.30
  A 1.64 1.64 0.0 0 0 81.18 58.08
  C 70.86 51.24 62.53 37.53 65.21 24.40
  A 0.88 0.87 -89.5 0 1 65.90 23.72
  C 74.35 22.06 83.30 23.86 90.71 28.01
  C 100.59 33.54 104.29 41.28 107.72 51.60
  Z"
/>
<path fill="#58a011" d="
  M 114.97 59.79
  L 136.79 69.97
  A 0.66 0.66 0.0 0 0 137.68 69.12
  C 135.27 63.33 129.79 59.20 124.26 56.49
  A 0.84 0.84 0.0 0 1 124.29 54.97
  C 130.61 52.18 137.82 46.95 140.42 40.16
  A 0.35 0.34 1.6 0 0 139.99 39.71
  Q 127.10 43.80 117.25 52.99
  A 0.92 0.92 0.0 0 1 115.71 52.32
  L 115.70 50.76
  C 118.45 43.21 122.15 35.08 128.63 30.30
  Q 140.69 21.41 156.57 23.68
  Q 157.07 23.75 157.30 24.20
  Q 158.12 25.81 158.09 27.25
  Q 157.73 47.63 141.44 58.55
  Q 140.69 59.06 141.17 59.83
  C 143.64 63.79 150.43 78.74 141.41 79.55
  C 127.85 80.77 118.93 71.99 114.97 59.79
  Z"
/>
<path fill="#eb1f2a" d="
  M 140.99 88.40
  Q 142.28 92.63 138.81 95.80
  Q 138.43 96.15 138.33 96.66
  Q 137.70 99.83 135.12 101.49
  C 135.31 94.80 127.67 96.02 128.45 101.68
  Q 127.07 104.26 127.10 106.99
  Q 127.10 107.41 126.73 107.60
  Q 125.57 108.19 125.12 108.88
  Q 120.67 115.57 114.78 121.09
  C 113.14 118.00 108.46 117.39 108.11 121.75
  Q 107.88 124.55 107.99 127.11
  L 103.50 131.02
  Q 103.40 131.10 103.30 131.17
  Q 102.90 131.42 102.82 131.88
  Q 102.73 132.34 102.38 132.66
  Q 98.27 136.52 93.70 138.23
  Q 88.64 136.54 88.08 139.50
  Q 87.45 142.82 87.97 149.18
  Q 83.44 154.48 78.41 159.40
  C 76.76 161.02 74.62 162.16 72.66 163.56
  C 61.32 149.68 49.21 131.67 46.51 113.26
  C 43.61 93.50 48.43 79.98 61.97 65.72
  C 63.10 64.52 64.54 63.70 65.97 62.72
  Q 67.75 61.49 69.91 62.85
  A 2.21 2.20 -62.1 0 1 70.75 65.61
  C 67.40 73.21 65.92 81.77 74.61 86.42
  Q 78.08 88.28 83.72 88.30
  Q 100.58 88.35 110.84 74.16
  A 0.87 0.87 0.0 0 1 112.26 74.16
  Q 122.88 88.91 140.99 88.40
  Z
  M 114.7577 86.1213
  A 2.92 2.92 0.0 0 0 111.8839 83.1558
  L 111.2440 83.1458
  A 2.92 2.92 0.0 0 0 108.2785 86.0196
  L 108.1623 93.4187
  A 2.92 2.92 0.0 0 0 111.0361 96.3842
  L 111.6760 96.3942
  A 2.92 2.92 0.0 0 0 114.6415 93.5204
  L 114.7577 86.1213
  Z
  M 65.4395 98.4847
  A 2.79 2.79 0.0 0 0 62.6350 95.7093
  L 62.3350 95.7109
  A 2.79 2.79 0.0 0 0 59.5596 98.5154
  L 59.6005 106.3153
  A 2.79 2.79 0.0 0 0 62.4050 109.0907
  L 62.7050 109.0891
  A 2.79 2.79 0.0 0 0 65.4804 106.2846
  L 65.4395 98.4847
  Z
  M 94.4062 100.2259
  A 2.92 2.92 0.0 0 0 91.4913 97.3008
  L 90.5513 97.2992
  A 2.92 2.92 0.0 0 0 87.6263 100.2141
  L 87.6138 107.3741
  A 2.92 2.92 0.0 0 0 90.5287 110.2992
  L 91.4687 110.3008
  A 2.92 2.92 0.0 0 0 94.3937 107.3859
  L 94.4062 100.2259
  Z
  M 76.6165 121.3912
  A 2.82 2.82 0.0 0 0 73.8411 118.5272
  L 73.0212 118.5144
  A 2.82 2.82 0.0 0 0 70.1573 121.2897
  L 70.0435 128.5288
  A 2.82 2.82 0.0 0 0 72.8189 131.3928
  L 73.6388 131.4056
  A 2.82 2.82 0.0 0 0 76.5027 128.6303
  L 76.6165 121.3912
  Z"
/>
<path fill="#ab0e21" d="
  M 174.37 85.72
  Q 169.14 93.97 166.02 102.96
  Q 165.78 103.66 165.00 103.82
  Q 164.85 103.85 164.87 103.70
  Q 164.88 103.57 164.83 103.43
  Q 164.75 103.23 164.57 103.18
  Q 164.34 103.12 163.95 103.16
  C 164.04 100.70 164.77 95.76 160.98 95.74
  C 157.27 95.73 157.53 98.09 157.36 101.21
  C 157.22 103.99 156.71 108.70 160.27 109.19
  Q 160.44 111.12 159.43 112.28
  Q 159.37 112.34 159.36 112.26
  L 159.33 111.89
  Q 159.28 111.41 159.01 111.81
  Q 156.75 115.00 154.24 117.99
  Q 154.02 118.26 154.18 118.54
  Q 154.37 118.86 153.99 118.89
  L 152.76 118.99
  C 147.82 116.93 146.96 120.46 146.95 124.40
  Q 146.29 129.55 141.76 133.74
  Q 141.37 134.10 141.31 134.63
  Q 141.21 135.42 140.58 135.38
  Q 140.10 135.34 139.84 135.76
  Q 138.02 138.72 135.06 140.30
  C 134.68 136.29 128.64 136.41 128.41 140.95
  Q 128.27 143.71 128.45 146.57
  Q 124.41 156.61 114.71 160.98
  C 113.72 157.35 109.00 157.63 108.33 160.99
  C 108.12 162.04 107.46 169.37 109.46 170.93
  Q 109.25 171.60 109.50 172.31
  Q 109.68 172.79 109.37 173.19
  Q 104.40 179.64 97.83 184.49
  Q 97.42 184.80 96.91 184.85
  L 94.40 185.09
  C 85.61 178.48 79.58 171.16 72.66 163.56
  C 74.62 162.16 76.76 161.02 78.41 159.40
  Q 83.44 154.48 87.97 149.18
  Q 90.33 152.01 93.29 150.36
  A 1.29 1.27 -6.3 0 0 93.88 149.63
  Q 95.63 143.88 93.70 138.23
  Q 98.27 136.52 102.38 132.66
  Q 102.73 132.34 102.82 131.88
  Q 102.90 131.42 103.30 131.17
  Q 103.40 131.10 103.50 131.02
  L 107.99 127.11
  C 107.46 132.30 113.83 133.68 114.38 128.14
  Q 114.78 124.10 114.78 121.09
  Q 120.67 115.57 125.12 108.88
  Q 125.57 108.19 126.73 107.60
  Q 127.10 107.41 127.10 106.99
  Q 127.07 104.26 128.45 101.68
  Q 128.32 104.51 128.47 107.24
  C 128.63 110.15 132.06 110.78 134.17 109.37
  A 0.99 0.96 -15.7 0 0 134.60 108.63
  L 135.12 101.49
  Q 137.70 99.83 138.33 96.66
  Q 138.43 96.15 138.81 95.80
  Q 142.28 92.63 140.99 88.40
  C 153.64 86.59 158.52 76.19 151.73 65.35
  A 0.81 0.79 -48.7 0 1 151.69 64.60
  Q 152.58 62.66 154.72 62.16
  Q 155.14 62.06 155.53 62.24
  C 163.88 66.17 170.76 77.34 174.37 85.72
  Z"
/>
<rect fill="#fffbfa" x="-3.24" y="-6.62" transform="translate(111.46,89.77) rotate(0.9)" width="6.48" height="13.24" rx="2.92"/>
<path fill="#6e0f1f" d="
  M 174.37 85.72
  Q 180.38 103.76 174.82 121.01
  Q 168.37 140.98 156.64 155.66
  C 147.89 166.62 140.43 175.63 129.84 183.79
  Q 112.66 197.03 94.40 185.09
  L 96.91 184.85
  Q 97.42 184.80 97.83 184.49
  Q 104.40 179.64 109.37 173.19
  Q 109.68 172.79 109.50 172.31
  Q 109.25 171.60 109.46 170.93
  Q 114.71 172.47 114.88 168.19
  Q 114.94 166.58 114.71 160.98
  Q 124.41 156.61 128.45 146.57
  C 128.13 149.83 131.54 152.46 133.93 149.89
  C 135.58 148.12 135.14 142.58 135.06 140.30
  Q 138.02 138.72 139.84 135.76
  Q 140.10 135.34 140.58 135.38
  Q 141.21 135.42 141.31 134.63
  Q 141.37 134.10 141.76 133.74
  Q 146.29 129.55 146.95 124.40
  C 147.03 127.18 146.89 133.43 151.95 131.10
  A 2.26 2.24 -6.3 0 0 153.21 129.54
  Q 154.46 123.94 152.76 118.99
  L 153.99 118.89
  Q 154.37 118.86 154.18 118.54
  Q 154.02 118.26 154.24 117.99
  Q 156.75 115.00 159.01 111.81
  Q 159.28 111.41 159.33 111.89
  L 159.36 112.26
  Q 159.37 112.34 159.43 112.28
  Q 160.44 111.12 160.27 109.19
  Q 164.56 108.89 163.95 103.16
  Q 164.34 103.12 164.57 103.18
  Q 164.75 103.23 164.83 103.43
  Q 164.88 103.57 164.87 103.70
  Q 164.85 103.85 165.00 103.82
  Q 165.78 103.66 166.02 102.96
  Q 169.14 93.97 174.37 85.72
  Z"
/>
<path fill="#003433" d="
  M 87.24 190.58
  C 101.19 203.58 121.43 202.89 135.54 190.50
  Q 135.94 190.15 136.46 190.11
  Q 137.38 190.02 138.25 190.01
  Q 157.87 189.81 177.49 189.75
  C 184.62 189.72 185.31 184.78 185.30 178.67
  Q 185.26 156.07 185.24 133.51
  C 185.23 130.37 185.78 127.30 188.73 125.61
  C 195.30 121.86 203.75 124.61 203.82 133.25
  Q 204.02 155.72 204.03 178.20
  Q 204.04 186.63 202.67 190.65
  C 200.00 198.47 193.64 205.52 185.54 207.84
  Q 182.38 208.75 173.89 208.75
  Q 114.62 208.74 55.36 208.72
  Q 40.82 208.72 38.67 208.25
  Q 30.04 206.34 24.15 198.35
  C 18.73 191.01 19.32 186.29 19.29 175.65
  Q 19.23 153.83 19.16 132.01
  Q 19.15 126.97 23.46 125.02
  C 29.98 122.06 37.85 125.25 37.87 133.25
  Q 37.98 169.36 37.83 180.99
  C 37.73 188.37 41.75 189.79 48.45 189.79
  Q 66.97 189.77 85.00 189.70
  A 3.31 3.29 66.3 0 1 87.24 190.58
  Z"
/>
</svg>
