<?xml version="1.0" encoding="UTF-8" standalone="no"?>
<!DOCTYPE svg PUBLIC "-//W3C//DTD SVG 1.1//EN" "http://www.w3.org/Graphics/SVG/1.1/DTD/svg11.dtd">
<svg xmlns="http://www.w3.org/2000/svg" version="1.1" viewBox="0.00 0.00 468.00 81.00">
<path fill="#000000" d="
  M 26.68 19.50
  C 19.49 26.41 33.93 31.48 37.93 33.34
  C 45.54 36.88 51.60 40.17 55.00 46.73
  C 59.11 54.66 56.04 66.05 48.94 71.71
  Q 45.13 74.75 38.48 76.16
  Q 19.15 80.25 2.73 68.11
  Q 2.27 67.77 2.56 67.27
  L 10.17 54.46
  Q 10.45 53.99 10.90 54.30
  C 17.32 58.74 23.62 62.77 31.74 61.76
  C 36.55 61.16 40.99 56.45 37.61 51.66
  Q 36.06 49.47 32.41 47.89
  Q 24.58 44.50 17.54 39.71
  C 2.55 29.52 7.86 8.91 24.01 3.60
  C 33.76 0.40 45.72 3.43 54.42 8.67
  A 0.48 0.47 29.1 0 1 54.60 9.30
  L 48.38 21.59
  A 0.65 0.65 0.0 0 1 47.44 21.84
  C 42.46 18.63 31.83 14.56 26.68 19.50
  Z"
/>
<path fill="#000000" d="
  M 295.25 17.37
  C 286.19 17.21 284.75 25.89 292.50 29.57
  C 303.41 34.75 320.16 40.61 319.37 55.49
  C 318.71 67.90 311.06 74.35 299.14 76.51
  Q 281.15 79.75 265.36 68.25
  Q 264.74 67.79 265.13 67.13
  L 272.68 54.46
  Q 272.95 54.00 273.41 54.30
  C 280.52 59.05 286.60 63.14 295.49 61.50
  C 300.51 60.58 303.13 55.04 299.67 50.95
  Q 298.62 49.72 295.39 48.06
  C 289.29 44.93 281.51 42.01 276.97 37.24
  Q 267.42 27.21 273.38 15.09
  C 281.34 -1.11 300.80 0.26 314.31 7.22
  Q 315.80 7.98 316.74 8.80
  A 0.72 0.71 -56.5 0 1 316.91 9.66
  L 310.79 21.78
  A 0.50 0.50 0.0 0 1 310.06 21.97
  Q 303.46 17.50 295.25 17.37
  Z"
/>
<path fill="#000000" d="
  M 78.31 43.42
  Q 78.06 51.35 78.47 59.24
  C 78.72 64.14 81.90 63.54 85.14 62.31
  Q 85.68 62.10 85.85 62.65
  L 89.21 73.78
  Q 89.36 74.27 88.91 74.50
  C 78.72 79.96 64.41 77.74 62.97 64.25
  Q 62.45 59.40 62.81 43.33
  Q 62.83 42.75 62.25 42.75
  L 56.73 42.75
  Q 56.22 42.75 56.22 42.23
  L 56.20 31.52
  Q 56.20 30.99 56.73 30.98
  L 62.11 30.94
  Q 62.71 30.94 62.71 30.34
  L 62.71 14.71
  Q 62.71 14.12 63.29 14.12
  L 77.61 14.11
  Q 78.24 14.11 78.24 14.75
  L 78.24 30.35
  A 0.61 0.60 0.0 0 0 78.85 30.95
  L 87.23 30.97
  Q 87.74 30.97 87.74 31.48
  L 87.74 42.25
  A 0.49 0.49 0.0 0 1 87.25 42.74
  L 78.99 42.75
  Q 78.33 42.75 78.31 43.42
  Z"
/>
<path fill="#000000" d="
  M 106.05 36.73
  A 0.33 0.33 0.0 0 0 106.65 36.93
  C 112.04 29.89 121.62 27.16 129.36 32.20
  Q 129.84 32.51 129.58 33.03
  L 123.71 44.92
  Q 123.44 45.45 122.90 45.20
  C 117.41 42.58 110.18 41.67 107.32 48.11
  Q 106.28 50.45 106.23 57.02
  Q 106.17 66.27 105.96 75.52
  Q 105.95 76.00 105.47 76.00
  L 91.13 76.00
  Q 90.52 76.00 90.52 75.38
  L 90.50 31.48
  Q 90.50 30.97 91.02 30.97
  L 105.49 30.96
  Q 106.02 30.96 106.02 31.49
  L 106.05 36.73
  Z"
/>
<path fill="#000000" d="
  M 179.50 33.82
  L 179.50 75.50
  Q 179.50 76.00 179.00 76.00
  L 164.51 76.00
  A 0.47 0.46 -88.8 0 1 164.05 75.51
  L 164.24 71.52
  A 0.37 0.37 0.0 0 0 163.61 71.24
  C 156.32 78.19 146.85 79.50 138.06 74.34
  Q 125.61 67.03 127.05 50.49
  C 128.68 31.83 148.23 23.77 163.38 34.61
  Q 163.99 35.05 163.99 34.30
  L 163.98 31.49
  Q 163.98 30.96 164.51 30.96
  L 195.78 30.97
  A 1.02 1.00 77.7 0 1 196.70 31.57
  L 207.05 54.49
  A 0.39 0.39 0.0 0 0 207.76 54.49
  L 217.97 31.49
  Q 218.20 30.97 218.76 30.97
  L 228.44 30.96
  Q 228.97 30.96 229.18 31.44
  L 239.37 54.40
  A 0.43 0.43 0.0 0 0 240.16 54.40
  L 250.50 31.47
  Q 250.73 30.97 251.27 30.97
  L 268.00 30.98
  Q 268.64 30.98 268.33 31.54
  L 244.76 75.53
  Q 244.50 76.00 243.96 76.00
  L 234.28 76.00
  Q 233.96 76.00 233.84 75.71
  L 223.96 53.50
  Q 223.59 52.67 223.22 53.50
  L 213.42 75.53
  A 0.79 0.79 0.0 0 1 212.70 76.00
  L 203.23 76.00
  Q 202.68 76.00 202.42 75.52
  L 180.00 33.70
  Q 179.50 32.75 179.50 33.82
  Z
  M 164.38 53.49
  A 10.59 10.59 0.0 0 0 153.79 42.90
  A 10.59 10.59 0.0 0 0 143.20 53.49
  A 10.59 10.59 0.0 0 0 153.79 64.08
  A 10.59 10.59 0.0 0 0 164.38 53.49
  Z"
/>
<path fill="#000000" d="
  M 395.51 34.24
  L 395.47 31.50
  Q 395.47 30.97 396.00 30.97
  L 410.48 30.96
  Q 411.00 30.96 411.00 31.48
  L 411.00 75.50
  Q 411.00 76.00 410.50 76.00
  L 396.16 76.00
  Q 395.56 76.00 395.58 75.41
  L 395.70 71.97
  A 0.50 0.50 0.0 0 0 394.86 71.58
  Q 389.05 76.90 381.75 77.28
  C 363.68 78.21 354.21 59.24 360.04 44.00
  C 364.81 31.52 379.14 25.80 391.26 32.30
  C 392.27 32.84 393.66 33.91 394.95 34.58
  Q 395.52 34.88 395.51 34.24
  Z
  M 395.88 53.49
  A 10.59 10.59 0.0 0 0 385.29 42.90
  A 10.59 10.59 0.0 0 0 374.70 53.49
  A 10.59 10.59 0.0 0 0 385.29 64.08
  A 10.59 10.59 0.0 0 0 395.88 53.49
  Z"
/>
<path fill="#000000" d="
  M 433.15 35.08
  C 435.70 33.23 438.36 31.32 441.23 30.46
  C 451.68 27.34 465.31 33.39 465.43 45.76
  Q 465.57 60.63 465.42 75.52
  Q 465.42 76.00 464.94 76.00
  L 450.52 76.00
  Q 450.02 76.00 450.01 75.49
  Q 449.85 57.96 449.93 53.25
  C 449.99 50.02 449.65 46.66 447.55 44.20
  C 443.15 39.06 434.40 42.82 432.92 48.66
  Q 432.57 50.04 432.55 57.38
  Q 432.54 66.42 432.52 75.47
  Q 432.52 76.00 431.99 76.00
  L 417.50 76.00
  A 0.50 0.50 0.0 0 1 417.00 75.50
  L 417.01 31.48
  Q 417.01 30.97 417.52 30.97
  L 431.99 30.96
  Q 432.53 30.96 432.53 31.49
  L 432.53 34.76
  Q 432.53 35.53 433.15 35.08
  Z"
/>
<path fill="#000000" d="
  M 327.93 71.35
  C 315.53 61.61 317.31 42.64 330.67 34.05
  Q 343.06 26.09 358.29 32.63
  Q 359.84 33.29 359.09 34.80
  L 354.67 43.69
  Q 354.39 44.25 353.80 44.02
  C 349.74 42.43 345.27 41.83 341.55 43.89
  C 329.01 50.86 338.99 70.15 353.82 62.74
  A 0.55 0.55 0.0 0 1 354.55 62.99
  L 359.40 72.85
  A 0.49 0.49 0.0 0 1 359.19 73.50
  C 349.05 79.09 336.93 78.42 327.93 71.35
  Z"
/>
</svg>
