<?xml version="1.0" encoding="UTF-8" standalone="no"?>
<!DOCTYPE svg PUBLIC "-//W3C//DTD SVG 1.1//EN" "http://www.w3.org/Graphics/SVG/1.1/DTD/svg11.dtd">
<svg xmlns="http://www.w3.org/2000/svg" version="1.1" viewBox="0.00 0.00 1024.00 1024.00">
<g stroke-width="2.00" fill="none" stroke-linecap="butt">
<path stroke="#a7d081" vector-effect="non-scaling-stroke" d="
  M 500.64 340.97
  C 498.43 329.83 495.35 319.97 488.70 310.72"
/>
<path stroke="#bedc80" vector-effect="non-scaling-stroke" d="
  M 488.70 310.72
  Q 470.46 286.80 440.64 282.57
  C 435.49 281.84 419.02 279.80 414.62 283.81
  A 1.46 1.42 73.0 0 0 414.17 284.68
  Q 413.10 292.63 414.01 299.50
  Q 418.67 334.47 448.29 353.62
  A 1.01 1.00 -57.4 0 1 448.59 355.01
  Q 440.70 367.56 438.01 382.32
  Q 437.10 387.30 437.72 389.69
  C 439.45 396.43 448.59 397.40 454.52 396.57"
/>
<path stroke="#a7d081" vector-effect="non-scaling-stroke" d="
  M 454.52 396.57
  C 478.38 394.37 497.17 379.39 502.18 355.24"
/>
<path stroke="#7a9993" vector-effect="non-scaling-stroke" d="
  M 502.18 355.24
  Q 502.35 354.80 503.29 354.21
  A 1.54 1.52 -57.7 0 1 504.24 353.99
  Q 509.61 354.52 515.01 354.95
  Q 515.82 355.02 515.84 355.81"
/>
<path stroke="#a7d081" vector-effect="non-scaling-stroke" d="
  M 515.84 355.81
  Q 518.39 363.80 522.34 371.12
  C 529.74 384.82 544.86 394.64 560.23 396.40
  C 572.39 397.78 583.06 394.72 579.18 379.49
  Q 575.75 365.99 568.49 354.00
  A 0.53 0.53 0.0 0 1 568.73 353.24
  C 571.70 351.99 574.52 350.70 576.98 348.71
  C 595.37 333.84 604.95 311.06 603.96 287.50
  C 603.83 284.38 603.07 282.55 599.66 282.07
  Q 590.88 280.84 581.87 281.88"
/>
<path stroke="#bedc80" vector-effect="non-scaling-stroke" d="
  M 581.87 281.88
  C 558.11 283.17 535.33 296.99 525.21 318.95
  Q 521.43 327.16 517.64 340.20"
/>
<path stroke="#7a9993" vector-effect="non-scaling-stroke" d="
  M 517.64 340.20
  Q 517.54 321.67 518.92 303.91
  C 520.09 288.80 520.59 279.78 525.93 268.30
  C 529.36 260.93 518.52 254.70 513.00 253.59
  C 499.58 250.89 495.45 261.67 495.35 272.64
  C 495.23 285.00 496.39 296.03 498.40 310.37
  Q 500.52 325.51 501.75 340.74
  A 0.46 0.46 0.0 0 1 501.19 341.23
  Q 500.91 341.16 500.64 340.97"
/>
<path stroke="#447720" vector-effect="non-scaling-stroke" d="
  M 517.64 340.20
  Q 517.48 340.46 517.69 341.34
  A 1.35 1.35 0.0 0 0 519.85 342.06
  Q 534.00 330.52 549.30 322.20"
/>
<path stroke="#2d6b21" vector-effect="non-scaling-stroke" d="
  M 549.30 322.20
  L 567.01 314.10
  A 0.76 0.75 -2.5 0 1 568.04 315.04
  Q 564.05 325.97 555.19 333.42
  Q 545.24 341.78 533.40 347.11
  A 0.51 0.51 0.0 0 0 533.41 348.04
  C 546.64 353.95 556.66 362.37 562.53 375.94
  A 0.86 0.86 0.0 0 1 561.41 377.08
  C 557.34 375.42 553.10 373.92 549.13 371.93
  Q 533.84 364.25 518.69 356.29
  C 517.84 355.84 516.79 355.83 515.84 355.81"
/>
<path stroke="#2d6b21" vector-effect="non-scaling-stroke" d="
  M 502.18 355.24
  Q 486.66 362.96 471.81 370.62
  Q 469.22 371.95 459.06 375.53"
/>
<path stroke="#447720" vector-effect="non-scaling-stroke" d="
  M 459.06 375.53
  Q 457.13 376.16 456.85 376.06
  Q 455.36 375.53 455.91 374.47
  Q 466.05 354.66 487.19 347.62
  Q 487.72 347.44 487.20 347.24
  C 471.17 341.07 457.16 331.55 450.15 315.15
  A 0.55 0.54 -89.0 0 1 450.88 314.44
  L 476.52 326.59"
/>
<path stroke="#2d6b21" vector-effect="non-scaling-stroke" d="
  M 476.52 326.59
  Q 486.63 331.82 496.84 339.65
  Q 498.52 340.94 500.64 340.97"
/>
<path stroke="#71ad0e" vector-effect="non-scaling-stroke" d="
  M 549.30 322.20
  Q 552.01 316.66 554.50 314.00
  Q 557.14 311.15 561.78 307.42
  C 567.43 302.88 571.90 297.74 577.12 292.88
  C 578.93 291.19 580.05 289.40 581.50 287.43
  Q 583.26 285.01 581.87 281.88"
/>
<path stroke="#71ad0e" vector-effect="non-scaling-stroke" d="
  M 488.70 310.72
  Q 487.75 311.03 487.29 310.22
  A 1.05 1.05 0.0 0 0 485.38 310.39
  L 482.31 319.28
  Q 482.16 319.70 481.79 319.94
  L 481.41 320.19
  Q 480.97 320.47 480.83 320.98
  L 479.42 326.10
  Q 479.29 326.58 478.79 326.58
  L 476.52 326.59"
/>
<path stroke="#71ad0e" vector-effect="non-scaling-stroke" d="
  M 459.06 375.53
  Q 458.73 380.17 455.80 383.69
  Q 455.68 383.84 455.87 383.85
  Q 456.02 383.86 456.13 383.93
  Q 456.43 384.13 456.27 384.46
  Q 454.94 387.19 453.46 389.87
  Q 453.37 390.04 453.40 390.17
  Q 453.44 390.36 453.58 390.52
  Q 453.85 390.82 453.59 391.12
  C 452.45 392.44 452.03 392.93 451.16 394.82
  Q 450.41 396.46 448.14 396.08
  Q 448.12 396.08 448.12 396.10
  Q 448.12 396.11 448.12 396.12
  Q 448.12 396.17 448.17 396.18
  L 454.52 396.57"
/>
<path stroke="#7a9993" vector-effect="non-scaling-stroke" d="
  M 362.63 278.01
  C 336.58 282.98 319.08 305.90 319.69 332.28
  Q 319.84 339.11 319.84 339.22
  Q 319.76 390.93 319.75 442.62
  C 319.75 451.68 323.00 460.51 332.15 463.91
  C 341.40 467.34 352.52 462.64 356.10 453.62
  Q 357.49 450.13 357.51 443.18
  Q 357.72 354.57 357.97 331.75
  Q 358.09 320.76 366.42 316.98
  C 372.91 314.03 384.98 315.17 393.07 315.34
  C 398.31 315.45 399.65 312.86 398.27 307.94
  Q 394.25 293.62 398.89 279.23
  A 1.06 1.06 0.0 0 0 398.66 278.20
  Q 397.66 277.12 395.50 277.11
  Q 384.46 277.06 373.42 277.18
  Q 366.61 277.25 362.63 278.01"
/>
<path stroke="#7a9993" vector-effect="non-scaling-stroke" d="
  M 643.40 315.26
  C 649.64 315.29 656.02 319.82 658.44 325.29
  Q 659.86 328.50 659.87 335.42
  Q 659.93 388.68 660.05 441.94
  Q 660.06 448.70 660.92 451.49
  C 666.33 469.14 690.47 469.71 696.82 452.60
  Q 698.20 448.88 698.17 441.21
  Q 697.92 388.87 698.23 336.53
  Q 698.30 325.04 696.97 319.06
  Q 692.08 297.17 672.29 284.49
  Q 660.29 276.81 648.51 276.94
  Q 634.63 277.10 620.53 277.14
  A 2.02 2.01 81.0 0 0 618.62 279.78
  Q 623.68 295.25 618.11 310.45
  Q 617.97 310.84 618.05 311.25
  Q 618.86 315.17 622.38 315.18
  Q 632.88 315.20 643.40 315.26"
/>
<path stroke="#ea8b8d" vector-effect="non-scaling-stroke" d="
  M 549.22 412.66
  C 532.57 408.34 520.38 398.63 510.29 384.93
  A 1.33 1.33 0.0 0 0 508.18 384.89
  Q 499.61 395.60 489.05 403.95"
/>
<path stroke="#f99491" vector-effect="non-scaling-stroke" d="
  M 489.05 403.95
  Q 477.49 411.04 464.53 413.65"
/>
<path stroke="#f99491" vector-effect="non-scaling-stroke" d="
  M 464.53 413.65
  Q 451.31 416.26 441.09 413.66
  C 427.88 410.31 418.37 399.01 420.33 385.50
  Q 421.80 375.44 426.37 366.58
  A 1.25 1.24 36.4 0 0 426.15 365.15
  L 421.34 360.18
  A 2.18 2.18 0.0 0 0 418.53 359.91
  C 393.46 377.53 376.09 404.86 374.67 436.00
  C 373.95 451.78 375.38 470.01 380.35 485.33"
/>
<path stroke="#f99491" vector-effect="non-scaling-stroke" d="
  M 380.35 485.33
  Q 386.32 503.90 396.18 520.82"
/>
<path stroke="#ea8b8d" vector-effect="non-scaling-stroke" d="
  M 396.18 520.82
  Q 408.77 541.73 423.64 560.88"
/>
<path stroke="#df8d8e" vector-effect="non-scaling-stroke" d="
  M 423.64 560.88
  Q 431.90 572.20 441.79 582.31"
/>
<path stroke="#cc868a" vector-effect="non-scaling-stroke" d="
  M 441.79 582.31
  Q 457.01 599.95 475.81 613.55"
/>
<path stroke="#b98589" vector-effect="non-scaling-stroke" d="
  M 475.81 613.55
  Q 482.23 617.88 488.42 620.44"
/>
<path stroke="#a6888a" vector-effect="non-scaling-stroke" d="
  M 488.42 620.44
  C 509.30 628.50 528.47 623.90 545.61 610.61
  C 564.55 595.92 579.22 579.92 595.36 559.90
  C 604.48 548.60 610.92 538.57 618.58 526.11
  C 634.37 500.43 644.79 471.26 643.74 442.07"
/>
<path stroke="#b98589" vector-effect="non-scaling-stroke" d="
  M 643.74 442.07
  Q 643.40 425.81 638.20 410.57"
/>
<path stroke="#cc868a" vector-effect="non-scaling-stroke" d="
  M 638.20 410.57
  Q 630.34 388.86 613.96 372.68"
/>
<path stroke="#df8d8e" vector-effect="non-scaling-stroke" d="
  M 613.96 372.68
  Q 606.66 365.48 598.45 359.63
  A 0.94 0.93 -48.7 0 0 597.27 359.71
  L 591.01 365.54
  A 0.73 0.73 0.0 0 0 590.89 366.46
  C 597.07 376.21 600.02 389.96 594.14 400.51
  C 585.68 415.68 563.75 416.78 549.22 412.66"
/>
<path stroke="#b71424" vector-effect="non-scaling-stroke" d="
  M 613.96 372.68
  Q 612.75 375.42 610.45 377.50
  C 609.31 378.53 608.88 379.64 608.30 380.98
  Q 608.22 381.17 608.11 380.99
  L 607.95 380.75
  Q 607.72 380.39 607.45 380.72
  L 605.67 382.94
  Q 605.36 383.32 605.30 383.82
  Q 605.03 386.18 604.49 388.52
  C 604.06 390.44 602.62 391.83 602.18 393.94
  A 0.34 0.34 0.0 0 0 602.68 394.31
  L 603.17 394.04
  A 0.15 0.15 0.0 0 1 603.40 394.17
  L 603.40 394.47
  Q 603.40 394.69 603.25 394.85
  Q 602.69 395.46 602.74 396.24
  A 0.11 0.10 -26.1 0 0 602.93 396.30
  Q 603.02 396.21 603.12 396.13
  Q 603.52 395.81 603.32 396.28
  L 602.73 397.62
  Q 602.54 398.06 602.12 398.28
  Q 600.34 399.18 599.58 400.62
  Q 597.14 405.28 594.37 408.23
  Q 590.83 412.01 587.54 415.99
  C 582.82 421.68 578.59 428.86 573.98 435.18
  A 2.32 2.27 -86.8 0 1 573.26 435.84
  C 571.68 436.78 571.22 439.22 569.22 440.55
  A 0.08 0.08 0.0 0 0 569.19 440.66
  Q 569.27 440.78 569.40 440.84
  A 0.22 0.21 -24.7 0 1 569.25 441.24
  L 568.70 441.11
  Q 568.40 441.04 568.24 441.31
  L 565.13 446.86
  Q 564.89 447.27 565.03 447.73
  Q 565.40 448.91 564.24 449.48
  Q 563.70 449.74 563.41 450.26
  L 560.06 456.38
  Q 559.91 456.66 559.61 456.79
  Q 559.30 456.92 558.99 456.87
  Q 558.26 456.73 558.80 457.45
  Q 559.39 458.24 558.87 458.99
  Q 557.58 460.90 557.25 462.17
  Q 557.14 462.63 556.81 462.97
  L 551.84 468.20
  A 0.79 0.78 -24.4 0 0 551.61 468.80
  Q 551.68 470.01 550.93 469.74
  A 0.67 0.66 25.4 0 0 550.14 470.02
  Q 541.89 483.40 533.15 494.00
  Q 524.27 504.76 512.53 515.03
  Q 512.17 515.35 512.15 515.99
  Q 512.12 516.46 511.77 516.76
  Q 500.72 526.18 490.93 536.91
  Q 490.63 537.24 490.18 537.21
  Q 489.49 537.15 488.96 537.74
  Q 481.98 545.51 474.35 552.67
  A 1.48 1.42 -14.4 0 0 473.97 553.28
  Q 473.81 553.84 473.37 554.22
  Q 472.31 555.13 472.24 555.21
  Q 463.87 565.04 454.52 573.98
  Q 454.16 574.32 454.31 574.79
  L 454.40 575.08
  Q 454.52 575.49 454.18 575.74
  Q 453.14 576.52 451.22 578.37
  Q 447.10 582.36 441.79 582.31"
/>
<path stroke="#d51a28" vector-effect="non-scaling-stroke" d="
  M 423.64 560.88
  Q 423.94 558.89 425.55 561.88
  Q 425.63 562.01 425.78 561.98
  L 426.28 561.85
  Q 426.34 561.84 426.30 561.80
  Q 426.18 561.68 426.05 561.57
  Q 425.89 561.44 426.06 561.31
  L 428.38 559.57
  A 0.28 0.28 0.0 0 1 428.80 559.66
  L 429.00 560.03
  Q 429.16 560.33 429.13 559.99
  Q 429.10 559.70 429.24 559.46
  Q 429.36 559.24 429.71 559.10
  Q 435.72 556.59 439.27 553.76
  Q 447.14 547.48 451.36 544.85
  Q 451.81 544.57 451.72 544.17
  Q 451.62 543.70 452.02 543.45
  L 455.47 541.27
  Q 455.87 541.02 456.11 540.62
  Q 457.35 538.57 459.79 538.87
  Q 460.36 538.95 460.32 538.37
  Q 459.64 528.38 460.68 518.84"
/>
<path stroke="#df8d8e" vector-effect="non-scaling-stroke" d="
  M 460.68 518.84
  Q 460.85 527.47 460.96 536.25
  Q 461.03 541.87 466.51 542.65
  C 471.93 543.41 473.95 540.35 473.99 535.25
  Q 474.04 528.98 474.00 522.74
  C 473.98 519.00 472.94 516.70 469.43 515.51"
/>
<path stroke="#d51a28" vector-effect="non-scaling-stroke" d="
  M 469.43 515.51
  Q 469.66 514.88 470.08 514.78
  Q 470.23 514.74 470.39 514.82
  Q 470.55 514.91 470.69 515.02
  Q 471.06 515.34 471.54 515.24
  Q 474.22 514.70 475.41 512.28
  Q 475.63 511.82 476.07 511.56
  C 478.11 510.31 479.17 508.26 480.96 507.01
  Q 486.15 503.36 490.02 498.33
  Q 491.29 496.69 493.13 495.01
  C 494.80 493.49 496.17 491.14 498.32 490.39
  Q 498.85 490.20 498.87 490.76
  Q 498.88 490.89 498.87 491.02
  Q 498.81 492.31 499.61 491.24
  L 499.96 490.78
  Q 500.23 490.42 500.51 490.77
  Q 500.61 490.88 500.77 491.02
  Q 501.00 491.20 501.01 490.91
  L 501.42 479.14
  A 0.85 0.83 79.4 0 1 501.92 478.40
  Q 503.18 477.83 503.03 478.50"
/>
<path stroke="#df8d8e" vector-effect="non-scaling-stroke" d="
  M 503.03 478.50
  C 501.08 481.55 501.82 489.44 502.00 496.08
  C 502.27 506.36 515.28 505.26 515.19 496.74
  Q 515.11 490.24 515.38 483.61
  C 515.67 476.53 509.05 474.76 503.38 478.03"
/>
<path stroke="#d51a28" vector-effect="non-scaling-stroke" d="
  M 503.38 478.03
  Q 503.20 478.04 503.14 477.81
  Q 503.10 477.64 503.25 477.54
  L 506.87 474.96
  A 0.64 0.63 28.5 0 1 507.30 474.84
  L 511.39 475.19
  Q 511.92 475.24 512.33 474.90
  Q 516.77 471.26 517.91 465.52
  A 2.02 1.95 71.5 0 1 518.34 464.62
  Q 526.63 454.93 532.45 443.60
  Q 533.25 442.06 535.24 439.72
  Q 537.40 437.21 538.35 433.92
  Q 538.48 433.47 538.92 433.63
  L 539.37 433.79
  Q 539.83 433.95 540.10 433.54
  Q 541.80 430.92 542.34 427.83
  Q 542.37 427.63 542.52 427.49
  L 542.75 427.26
  Q 542.97 427.04 542.95 426.73
  Q 542.87 425.39 543.71 424.32
  A 0.23 0.23 0.0 0 1 544.12 424.45
  Q 544.12 424.58 544.11 424.71
  A 0.15 0.15 0.0 0 0 544.38 424.82
  L 548.51 419.35
  A 0.60 0.60 0.0 0 0 548.63 418.99
  L 548.63 418.58
  A 0.07 0.07 0.0 0 0 548.53 418.52
  L 548.20 418.69
  A 0.25 0.25 0.0 0 1 547.91 418.28
  Q 549.54 416.73 548.59 414.71
  Q 548.44 414.37 548.56 414.01
  L 548.80 413.36
  Q 548.90 413.08 548.60 413.10
  L 547.28 413.19
  Q 547.20 413.19 547.14 413.13
  Q 547.06 413.05 546.95 412.97
  A 0.24 0.24 0.0 0 1 547.11 412.54
  L 549.22 412.66"
/>
<path stroke="#ea8b8d" vector-effect="non-scaling-stroke" d="
  M 503.38 478.03
  Q 503.58 478.10 503.03 478.50"
/>
<path stroke="#ea8b8d" vector-effect="non-scaling-stroke" d="
  M 469.43 515.51
  Q 464.08 514.00 460.68 518.84"
/>
<path stroke="#ef212b" vector-effect="non-scaling-stroke" d="
  M 396.18 520.82
  L 397.16 521.16
  Q 397.99 521.46 397.77 520.60
  Q 397.57 519.86 398.34 520.11
  A 0.40 0.39 -3.4 0 0 398.82 519.57
  L 398.57 519.02
  Q 398.40 518.66 398.66 518.36
  Q 399.00 517.97 399.21 518.14
  Q 399.61 518.49 399.81 518.00
  Q 401.35 514.31 403.56 513.27
  Q 413.58 508.54 420.49 499.94
  Q 420.81 499.55 421.29 499.39
  L 424.34 498.36"
/>
<path stroke="#ea8b8d" vector-effect="non-scaling-stroke" d="
  M 424.34 498.36
  C 426.34 502.71 430.63 504.58 434.59 501.78
  C 438.33 499.14 437.37 488.63 437.21 481.32
  C 437.18 479.62 436.54 478.74 435.64 477.41"
/>
<path stroke="#ef212b" vector-effect="non-scaling-stroke" d="
  M 435.64 477.41
  Q 435.11 476.57 435.11 475.64
  Q 435.11 475.14 435.51 474.83
  Q 443.54 468.60 452.39 463.61
  Q 455.32 461.95 458.52 458.81
  Q 459.02 458.32 460.05 458.54
  Q 460.42 458.62 460.48 458.25
  Q 460.68 456.96 461.19 457.39"
/>
<path stroke="#ea8b8d" vector-effect="non-scaling-stroke" d="
  M 461.19 457.39
  Q 465.31 460.95 469.49 459.44
  Q 473.61 457.95 473.80 454.00
  Q 473.97 450.41 473.73 437.74
  Q 473.68 435.24 470.52 433.21"
/>
<path stroke="#ef212b" vector-effect="non-scaling-stroke" d="
  M 470.52 433.21
  Q 470.40 432.75 470.53 432.31
  A 0.20 0.19 -50.8 0 1 470.89 432.27
  L 471.63 433.65
  Q 471.76 433.89 471.94 433.69
  Q 472.06 433.56 472.11 433.40
  Q 472.12 433.34 472.13 433.40
  Q 472.17 433.59 472.27 433.74
  A 0.14 0.14 0.0 0 0 472.53 433.68
  L 472.65 432.89
  Q 472.68 432.70 472.81 432.56
  Q 473.04 432.32 473.19 432.41
  Q 473.50 432.59 473.77 432.35
  Q 479.99 426.82 487.71 423.69
  Q 489.65 422.90 493.42 419.57
  C 495.90 417.38 498.99 417.33 500.01 413.40
  A 1.15 1.13 -60.6 0 0 499.72 412.33
  Q 498.25 410.84 497.91 408.79
  A 1.78 1.78 0.0 0 0 496.18 407.30
  Q 493.87 407.27 493.01 405.20
  A 1.72 1.60 -83.6 0 0 492.55 404.58
  Q 491.29 403.56 490.19 404.89
  Q 490.16 404.93 490.12 404.89
  Q 490.03 404.80 489.94 404.71
  Q 489.89 404.66 490.00 404.60
  Q 490.13 404.54 490.26 404.48
  A 0.19 0.18 37.1 0 0 490.21 404.13
  L 489.05 403.95"
/>
<path stroke="#920d20" vector-effect="non-scaling-stroke" d="
  M 638.20 410.57
  Q 636.56 412.13 635.60 413.70
  Q 633.56 417.04 633.52 417.11
  Q 630.75 420.86 628.32 424.85
  Q 628.04 425.31 628.32 425.63
  Q 628.61 425.97 628.38 426.35
  C 625.95 430.29 623.53 434.18 621.42 438.30
  Q 620.08 440.93 617.70 442.85
  A 0.36 0.36 0.0 0 1 617.12 442.62
  L 615.94 435.06"
/>
<path stroke="#cc868a" vector-effect="non-scaling-stroke" d="
  M 615.94 435.06
  C 615.00 429.02 607.35 427.37 604.05 431.86
  Q 602.79 433.59 602.78 437.42
  Q 602.77 443.84 603.01 450.23
  Q 603.33 458.84 611.65 456.99"
/>
<path stroke="#920d20" vector-effect="non-scaling-stroke" d="
  M 611.65 456.99
  L 610.06 461.08
  Q 609.88 461.56 609.43 461.79
  Q 607.59 462.72 607.87 464.84
  Q 607.94 465.38 607.50 465.70
  Q 603.43 468.62 599.92 472.16
  Q 598.47 473.62 596.56 474.77
  Q 594.69 475.90 593.01 477.20"
/>
<path stroke="#cc868a" vector-effect="non-scaling-stroke" d="
  M 593.01 477.20
  C 588.02 474.64 582.33 476.16 582.06 482.22
  Q 581.62 492.10 583.37 501.23"
/>
<path stroke="#920d20" vector-effect="non-scaling-stroke" d="
  M 583.37 501.23
  L 580.35 505.58
  A 0.16 0.16 0.0 0 1 580.10 505.60
  L 579.85 505.35
  A 0.20 0.19 42.0 0 0 579.57 505.36
  L 559.93 527.61
  Q 559.64 527.94 559.21 527.84
  Q 558.97 527.78 558.72 527.70
  Q 558.21 527.55 558.18 528.09
  L 557.98 533.11
  A 0.18 0.17 -44.7 0 1 557.63 533.11
  L 557.37 521.16"
/>
<path stroke="#cc868a" vector-effect="non-scaling-stroke" d="
  M 557.37 521.16
  C 556.72 514.94 549.30 512.56 545.32 517.08
  Q 544.02 518.56 543.97 521.43
  Q 543.83 528.33 543.95 535.22
  C 544.01 538.87 545.30 541.32 548.70 542.44"
/>
<path stroke="#920d20" vector-effect="non-scaling-stroke" d="
  M 548.70 542.44
  Q 548.66 544.02 546.90 543.90
  Q 546.64 543.88 546.65 544.15
  Q 546.66 544.46 546.42 544.67
  C 540.64 549.41 536.28 554.90 529.95 559.39
  Q 529.92 559.42 529.95 559.45
  Q 530.04 559.53 530.13 559.63
  A 0.17 0.17 0.0 0 1 530.10 559.88
  Q 525.57 563.15 521.62 567.12
  C 520.99 567.75 520.03 567.98 519.21 568.41
  A 1.13 1.12 -2.4 0 0 518.67 568.99
  Q 518.04 570.47 516.67 570.73
  Q 516.02 570.86 516.12 571.51
  Q 516.35 573.11 515.51 572.92"
/>
<path stroke="#cc868a" vector-effect="non-scaling-stroke" d="
  M 515.51 572.92
  Q 515.43 568.64 515.38 564.25
  C 515.31 558.12 507.58 555.26 504.05 559.71
  Q 502.74 561.36 502.71 564.63
  Q 502.60 576.22 502.76 579.50
  Q 502.89 582.35 505.64 584.26"
/>
<path stroke="#920d20" vector-effect="non-scaling-stroke" d="
  M 505.64 584.26
  Q 504.19 585.60 502.85 587.25
  Q 500.71 589.88 500.26 590.39
  Q 489.09 602.72 475.81 613.55"
/>
<path stroke="#f99491" vector-effect="non-scaling-stroke" d="
  M 470.52 433.21
  C 464.32 430.79 460.25 434.20 460.12 440.38
  Q 459.94 449.21 461.19 457.39"
/>
<path stroke="#f99491" vector-effect="non-scaling-stroke" d="
  M 435.64 477.41
  Q 429.09 473.86 425.76 478.29
  Q 424.36 480.14 424.28 483.74
  Q 424.10 491.37 424.34 498.36"
/>
<path stroke="#6c0f20" vector-effect="non-scaling-stroke" d="
  M 643.74 442.07
  Q 641.27 444.33 640.33 447.16
  Q 638.96 451.32 638.91 451.42
  Q 637.11 455.42 635.41 459.48
  A 0.08 0.07 -47.0 0 1 635.27 459.49
  Q 635.21 459.36 635.13 459.23
  Q 634.99 458.99 634.86 459.24
  Q 631.13 466.12 626.77 472.63
  Q 626.58 472.92 626.60 473.63
  Q 626.62 474.13 626.36 474.55
  Q 623.39 479.52 618.65 485.64
  Q 616.57 488.34 611.81 495.04
  Q 610.93 496.28 609.55 499.33
  Q 608.65 501.30 607.11 503.60
  Q 604.06 508.15 601.60 511.39
  Q 598.14 515.94 595.95 519.06
  Q 592.09 524.58 585.54 532.78
  Q 567.59 555.26 550.87 572.06
  C 542.79 580.19 538.67 584.58 531.48 589.75
  Q 531.08 590.04 530.91 590.49
  Q 530.63 591.23 529.51 591.93
  Q 522.87 596.06 516.27 600.25
  Q 515.81 600.54 515.36 600.24
  L 514.94 599.97
  Q 514.57 599.72 514.22 600.00
  Q 507.13 605.47 501.03 612.03
  Q 498.81 614.40 488.42 620.44"
/>
<path stroke="#b98589" vector-effect="non-scaling-stroke" d="
  M 505.64 584.26
  C 515.91 587.40 515.57 579.83 515.51 572.92"
/>
<path stroke="#b98589" vector-effect="non-scaling-stroke" d="
  M 548.70 542.44
  Q 557.01 543.26 557.06 535.25
  Q 557.14 525.03 557.37 521.16"
/>
<path stroke="#b98589" vector-effect="non-scaling-stroke" d="
  M 583.37 501.23
  Q 588.62 504.28 592.35 502.02
  C 594.85 500.51 595.13 497.99 595.14 495.25
  Q 595.19 488.38 595.28 481.50
  Q 595.30 479.53 593.01 477.20"
/>
<path stroke="#b98589" vector-effect="non-scaling-stroke" d="
  M 611.65 456.99
  Q 615.76 454.61 615.74 451.25
  Q 615.70 443.34 615.94 435.06"
/>
<path stroke="#fe292f" vector-effect="non-scaling-stroke" d="
  M 464.53 413.65
  Q 458.38 416.49 451.60 416.29
  Q 451.07 416.27 450.73 416.67
  L 447.89 420.08
  Q 447.64 420.37 447.28 420.50
  Q 446.15 420.88 445.39 421.85
  Q 445.08 422.24 444.59 422.24
  Q 443.56 422.24 443.30 423.27
  Q 443.24 423.50 443.25 423.50
  Q 443.34 423.53 443.44 423.56
  A 0.04 0.03 26.3 0 1 443.47 423.61
  Q 442.08 424.66 439.29 428.04
  Q 438.00 429.61 433.05 433.43
  Q 432.64 433.74 432.48 434.23
  C 431.97 435.84 431.77 436.44 430.58 437.68
  Q 424.67 443.81 417.29 448.12
  Q 416.77 448.42 417.06 448.94
  Q 417.64 449.98 416.70 450.85
  Q 416.36 451.16 416.34 451.61
  Q 416.21 454.37 413.90 456.10
  Q 413.81 456.17 413.77 456.06
  Q 413.73 455.93 413.69 455.81
  A 0.09 0.09 0.0 0 0 413.52 455.80
  L 412.82 457.07
  Q 412.57 457.53 412.22 457.14
  Q 411.77 456.65 411.30 456.71"
/>
<path stroke="#f99491" vector-effect="non-scaling-stroke" d="
  M 411.30 456.71
  C 413.97 455.42 414.98 453.40 415.02 450.32
  Q 415.10 443.79 414.95 437.24
  Q 414.81 431.53 410.68 429.63
  C 407.89 428.34 404.91 429.43 403.29 431.88
  C 401.04 435.29 402.27 446.14 402.42 450.26
  Q 402.72 458.71 411.30 456.71"
/>
<path stroke="#fe292f" vector-effect="non-scaling-stroke" d="
  M 411.30 456.71
  Q 410.62 458.04 409.21 458.56
  Q 406.91 459.41 406.75 459.50
  Q 398.84 463.99 392.25 470.24
  Q 392.18 470.31 389.45 473.41
  Q 388.02 475.04 386.12 476.12
  Q 385.80 476.30 385.70 476.66
  Q 384.84 479.91 381.67 480.14
  Q 381.05 480.19 380.95 480.80
  Q 380.61 483.05 381.20 485.26
  Q 381.29 485.60 381.02 485.37
  Q 380.66 485.06 380.35 485.33"
/>
<path stroke="#7a9993" vector-effect="non-scaling-stroke" d="
  M 689.62 635.87
  C 696.79 624.50 698.08 615.82 698.11 601.26
  Q 698.22 553.56 698.17 505.87
  Q 698.16 500.02 694.49 494.88
  C 690.13 488.75 683.06 485.68 675.68 487.26
  Q 659.63 490.69 659.73 508.01
  Q 660.01 554.66 659.90 601.32
  Q 659.88 608.98 658.48 612.48
  C 654.57 622.23 646.56 622.56 636.11 622.53
  Q 598.07 622.41 560.49 622.68
  A 2.75 2.74 23.1 0 0 558.64 623.42
  C 530.64 649.56 486.35 649.68 458.60 623.20
  A 3.04 3.03 66.6 0 0 456.48 622.36
  Q 417.16 622.57 377.51 622.48
  C 368.90 622.47 362.34 620.48 359.01 612.44
  Q 357.63 609.12 357.66 602.38
  Q 357.85 558.40 357.65 514.43
  Q 357.60 503.82 357.13 501.48
  C 353.50 483.42 327.27 481.50 321.14 498.75
  Q 319.71 502.77 319.74 511.42
  Q 319.87 555.92 319.71 600.44
  Q 319.66 613.77 321.08 619.98
  C 325.63 639.96 342.57 657.85 363.53 660.74
  Q 365.99 661.08 383.51 661.09
  Q 514.69 661.16 645.89 661.11
  C 664.51 661.11 679.70 651.63 689.62 635.87"
/>
<path stroke="#a7d081" vector-effect="non-scaling-stroke" d="
  M 727.60 683.83
  C 729.31 688.60 736.35 689.11 740.12 687.43
  C 748.87 683.54 744.89 671.57 736.94 670.24
  C 728.63 668.85 725.02 676.63 727.60 683.83"
/>
<path stroke="#df8d8e" vector-effect="non-scaling-stroke" d="
  M 537.41 723.84
  Q 541.49 731.94 551.55 734.46"
/>
<path stroke="#cc868a" vector-effect="non-scaling-stroke" d="
  M 551.55 734.46
  C 556.99 735.80 570.36 737.70 567.88 745.90
  C 566.47 750.53 559.67 752.02 555.56 751.38
  Q 548.23 750.24 542.95 745.47
  A 2.03 2.02 -38.4 0 0 540.59 745.20
  Q 537.24 747.08 535.04 749.77
  C 527.92 758.48 568.04 774.56 579.39 752.41
  C 584.23 742.96 580.61 732.08 570.75 727.60"
/>
<path stroke="#df8d8e" vector-effect="non-scaling-stroke" d="
  M 570.75 727.60
  L 552.30 721.35"
/>
<path stroke="#ea8b8d" vector-effect="non-scaling-stroke" d="
  M 552.30 721.35
  Q 548.01 718.67 548.48 714.75
  C 549.27 708.11 557.77 706.88 563.02 708.56
  Q 567.49 709.99 571.58 712.59
  Q 572.03 712.88 572.39 712.48
  L 578.33 705.94
  A 2.11 2.10 41.6 0 0 578.15 702.94
  Q 569.52 695.48 559.12 695.45
  Q 551.35 695.43 545.52 698.55
  C 535.93 703.67 532.77 713.82 537.41 723.84"
/>
<path stroke="#d51a28" vector-effect="non-scaling-stroke" d="
  M 552.30 721.35
  Q 551.78 721.46 551.42 721.91
  Q 551.15 722.26 551.32 722.66
  Q 551.67 723.52 551.31 724.29
  Q 551.13 724.69 550.70 724.79
  L 549.75 725.00
  Q 549.27 725.11 548.93 725.45
  Q 547.63 726.74 545.50 726.76
  Q 540.16 726.82 537.41 723.84"
/>
<path stroke="#b71424" vector-effect="non-scaling-stroke" d="
  M 570.75 727.60
  Q 570.20 727.93 569.68 727.75
  Q 569.27 727.60 569.09 728.00
  Q 566.74 733.26 562.01 734.06
  Q 558.70 734.62 552.06 733.57
  Q 551.55 733.49 551.38 733.97
  Q 551.29 734.23 551.55 734.46"
/>
<path stroke="#ea8b8d" vector-effect="non-scaling-stroke" d="
  M 283.52 724.04
  C 288.58 732.57 297.40 734.27 307.01 736.95
  Q 309.47 737.64 311.81 739.39
  C 316.98 743.25 313.47 749.23 308.43 750.53
  C 303.24 751.87 298.23 750.90 293.67 748.11
  C 291.52 746.80 288.66 743.49 285.89 744.93
  C 281.80 747.05 276.19 751.46 282.29 756.00
  Q 292.42 763.53 303.50 763.93
  Q 314.76 764.34 321.93 757.96
  C 333.82 747.37 329.00 729.39 313.50 725.49
  C 306.31 723.68 290.68 721.32 296.25 710.55"
/>
<path stroke="#f99491" vector-effect="non-scaling-stroke" d="
  M 296.25 710.55
  Q 305.81 704.33 317.14 712.82
  A 0.99 0.98 40.1 0 0 318.44 712.71
  L 324.50 706.50
  A 1.91 1.91 0.0 0 0 324.61 703.96
  Q 318.40 696.34 308.52 695.44
  C 296.69 694.37 284.00 699.91 281.65 711.97
  Q 280.47 718.07 283.52 724.04"
/>
<path stroke="#ef212b" vector-effect="non-scaling-stroke" d="
  M 296.25 710.55
  Q 293.46 712.44 293.37 714.00
  Q 293.21 717.05 293.71 719.62
  Q 293.79 720.05 293.47 720.34
  L 289.82 723.61
  A 0.89 0.88 -59.2 0 1 289.04 723.81
  L 284.61 722.72
  Q 284.33 722.66 284.25 722.93
  Q 284.09 723.45 283.52 724.04"
/>
<path stroke="#ea8b8d" vector-effect="non-scaling-stroke" d="
  M 340.60 738.15
  Q 340.24 743.38 340.47 748.96
  C 340.95 760.54 350.35 765.90 361.54 763.39
  C 363.89 762.86 365.64 761.58 365.88 758.98
  C 366.11 756.33 366.35 750.19 361.80 751.19
  C 357.39 752.15 353.61 751.29 353.54 745.99
  Q 353.45 738.73 353.62 731.47"
/>
<path stroke="#f99491" vector-effect="non-scaling-stroke" d="
  M 353.62 731.47
  L 353.61 726.37
  A 0.61 0.60 0.0 0 1 354.22 725.77
  L 363.62 725.76
  A 1.42 1.42 0.0 0 0 365.04 724.38
  L 365.31 715.55
  A 1.23 1.23 0.0 0 0 364.08 714.28
  L 354.01 714.27
  A 0.51 0.51 0.0 0 1 353.50 713.76
  L 353.60 702.75
  A 2.10 2.10 0.0 0 0 351.49 700.63
  L 343.35 700.66
  A 2.41 2.41 0.0 0 0 340.95 703.01
  L 340.67 713.40
  A 0.81 0.81 0.0 0 1 339.86 714.19
  L 333.10 714.21
  A 0.59 0.58 -0.5 0 0 332.52 714.79
  L 332.51 725.26
  Q 332.51 725.76 333.01 725.76
  L 340.01 725.79
  Q 340.56 725.79 340.56 726.33
  L 340.60 738.15"
/>
<path stroke="#ef212b" vector-effect="non-scaling-stroke" d="
  M 353.62 731.47
  Q 352.95 731.80 352.61 731.06
  A 0.29 0.20 40.7 0 0 352.13 731.01
  Q 352.13 731.13 352.11 731.28
  Q 352.05 731.82 351.53 731.96
  Q 349.38 732.54 347.65 733.89
  Q 347.32 734.15 346.91 734.23
  L 342.25 735.19
  A 0.89 0.88 -1.0 0 0 341.55 735.91
  Q 341.32 737.31 340.60 738.15"
/>
<path stroke="#cc868a" vector-effect="non-scaling-stroke" d="
  M 663.22 735.18
  C 654.36 731.53 638.72 731.15 634.83 742.53
  C 631.48 752.32 636.78 763.17 647.77 763.98
  Q 655.84 764.57 662.32 759.65
  A 0.57 0.56 53.4 0 1 663.12 759.77
  C 666.85 764.94 676.47 766.79 676.65 757.65
  Q 676.87 746.08 676.66 734.49
  Q 676.55 728.19 675.07 724.71
  C 669.04 710.50 649.98 710.27 638.53 717.70
  C 636.80 718.83 636.50 719.86 637.39 721.72
  Q 639.04 725.20 641.18 727.81
  A 0.71 0.71 0.0 0 0 642.06 727.98
  C 647.67 724.94 654.07 723.11 659.47 725.80
  Q 664.90 728.51 663.68 734.94
  Q 663.60 735.34 663.22 735.18"
/>
<path stroke="#df8d8e" vector-effect="non-scaling-stroke" d="
  M 430.99 724.97
  Q 438.66 727.37 438.21 734.55
  A 0.51 0.51 0.0 0 1 437.53 735.00
  C 430.01 732.28 418.53 731.70 412.32 737.67
  C 407.38 742.42 407.01 750.77 410.53 756.35
  C 416.39 765.66 428.67 765.92 437.45 760.37
  A 1.08 1.07 -35.3 0 1 438.87 760.61
  C 441.79 764.38 451.15 765.93 451.22 759.25
  Q 451.32 749.97 451.25 740.71
  C 451.18 731.64 451.63 727.61 447.52 721.36"
/>
<path stroke="#ea8b8d" vector-effect="non-scaling-stroke" d="
  M 447.52 721.36
  Q 443.06 714.99 434.25 713.47
  Q 421.11 711.21 410.62 719.27
  A 1.19 1.19 0.0 0 0 410.37 720.90
  L 415.96 728.73
  A 0.34 0.34 0.0 0 0 416.46 728.78
  Q 422.43 723.45 430.99 724.97"
/>
<path stroke="#d51a28" vector-effect="non-scaling-stroke" d="
  M 447.52 721.36
  L 447.26 727.98
  A 0.34 0.34 0.0 0 1 446.74 728.26
  Q 446.12 727.86 445.69 728.54
  Q 444.64 730.16 442.85 729.66
  A 0.81 0.80 -59.3 0 0 442.08 729.86
  Q 440.54 731.41 439.43 729.60
  C 438.11 727.47 437.65 725.78 435.47 724.76
  Q 434.42 724.27 433.41 723.73
  Q 431.57 722.73 430.23 722.53
  Q 425.08 721.76 420.62 724.59
  Q 420.46 724.69 420.41 724.83
  Q 420.36 724.97 420.37 725.13
  Q 420.42 725.64 420.81 725.30
  Q 421.04 725.10 421.27 724.95
  Q 421.47 724.81 421.74 724.77
  Q 426.66 723.96 430.99 724.97"
/>
<path stroke="#cc868a" vector-effect="non-scaling-stroke" d="
  M 590.86 752.15
  C 598.79 765.56 615.73 767.48 627.70 758.45
  Q 629.11 757.38 630.01 755.28
  A 1.16 1.15 -48.2 0 0 629.96 754.27
  C 628.61 751.84 625.84 749.84 623.41 748.37
  Q 621.38 747.14 620.30 747.98
  Q 611.99 754.44 604.28 748.03"
/>
<path stroke="#df8d8e" vector-effect="non-scaling-stroke" d="
  M 604.28 748.03
  C 594.81 737.30 603.67 720.06 618.30 727.82
  Q 620.12 728.79 622.05 729.70
  Q 622.49 729.91 622.82 729.54
  L 628.88 722.89
  A 1.57 1.56 -42.3 0 0 628.98 720.90
  C 624.92 715.41 618.88 712.84 611.90 713.01
  Q 591.96 713.48 587.47 734.00
  Q 585.37 743.61 590.86 752.15"
/>
<path stroke="#b71424" vector-effect="non-scaling-stroke" d="
  M 604.28 748.03
  L 603.55 747.78
  Q 603.23 747.66 602.97 747.89
  Q 601.33 749.33 599.51 750.52
  Q 596.40 752.55 595.78 752.79
  Q 593.51 753.67 590.86 752.15"
/>
<path stroke="#b98589" vector-effect="non-scaling-stroke" d="
  M 708.36 726.05
  C 717.73 725.36 719.05 730.95 719.05 739.03
  Q 719.06 748.44 719.23 757.90
  Q 719.28 760.72 720.58 762.01
  C 723.08 764.48 728.34 764.65 730.85 761.76
  Q 731.84 760.62 731.87 758.00
  Q 732.00 745.49 731.94 733.01
  Q 731.88 722.94 724.17 716.71"
/>
<path stroke="#cc868a" vector-effect="non-scaling-stroke" d="
  M 724.17 716.71
  C 716.56 710.64 706.98 712.54 700.61 719.32
  Q 700.23 719.72 700.18 719.17
  Q 699.67 713.84 693.73 713.38
  C 688.99 713.02 686.98 715.08 686.99 719.85
  Q 687.05 739.80 687.27 759.75
  C 687.34 766.21 700.01 764.39 700.02 760.00
  Q 700.03 748.59 700.20 737.13
  C 700.29 730.75 701.90 727.16 708.36 726.05"
/>
<path stroke="#920d20" vector-effect="non-scaling-stroke" d="
  M 724.17 716.71
  L 726.80 720.19
  A 1.71 1.70 62.0 0 1 726.00 722.83
  Q 720.40 724.76 714.59 724.45
  Q 714.11 724.43 713.68 724.22
  Q 712.83 723.79 712.18 724.35
  Q 711.87 724.62 711.46 724.62
  L 710.53 724.62
  Q 710.14 724.62 710.05 725.01
  Q 709.86 725.87 708.36 726.05"
/>
<path stroke="#ea8b8d" vector-effect="non-scaling-stroke" d="
  M 387.06 719.66
  A 0.64 0.64 0.0 0 1 386.03 718.98
  C 388.25 712.05 373.76 711.70 373.84 717.76
  Q 374.10 737.41 374.19 757.12
  Q 374.20 760.13 375.36 761.63
  C 378.24 765.35 387.18 764.59 387.21 758.74
  Q 387.26 749.62 387.39 740.50
  C 387.51 731.93 392.50 725.37 401.87 727.77
  A 1.32 1.32 0.0 0 0 403.35 727.12
  Q 405.41 723.23 407.02 719.15
  C 408.63 715.03 404.52 713.11 401.25 713.12
  C 394.92 713.13 391.72 715.58 387.06 719.66"
/>
<path stroke="#df8d8e" vector-effect="non-scaling-stroke" d="
  M 466.19 744.80
  Q 469.21 755.10 472.29 761.40
  C 473.40 763.68 475.81 763.43 477.66 763.74
  C 483.71 764.78 485.56 761.52 487.34 756.23
  Q 490.77 746.02 494.34 735.93
  A 0.55 0.54 -46.0 0 1 495.36 735.91
  Q 499.79 747.35 503.39 758.95
  Q 505.15 764.63 511.26 764.31
  C 516.55 764.03 518.12 759.57 519.38 755.47
  Q 524.17 739.84 529.43 724.37
  C 530.65 720.79 531.75 715.48 527.47 714.02
  C 520.24 711.55 518.42 715.70 516.62 721.82
  Q 513.59 732.10 510.70 742.38
  A 0.43 0.42 -48.3 0 1 509.90 742.43
  Q 505.41 731.39 502.20 719.77
  C 501.16 716.01 499.73 713.51 495.70 713.41
  C 491.99 713.32 488.87 714.13 487.85 718.14
  Q 484.56 731.12 479.56 743.38
  A 0.48 0.47 47.9 0 1 478.67 743.33
  L 473.54 726.45"
/>
<path stroke="#ea8b8d" vector-effect="non-scaling-stroke" d="
  M 473.54 726.45
  C 472.70 723.13 471.02 715.50 467.70 713.94
  C 463.70 712.05 456.27 713.76 458.34 719.97
  Q 462.44 732.23 466.19 744.80"
/>
<path stroke="#d51a28" vector-effect="non-scaling-stroke" d="
  M 473.54 726.45
  L 472.14 724.26
  A 0.29 0.28 -63.8 0 0 471.62 724.44
  Q 471.93 728.26 473.03 731.11
  Q 473.55 732.45 473.58 733.58
  C 473.61 734.56 472.98 735.13 473.06 736.23
  Q 473.10 736.73 472.69 737.02
  Q 471.65 737.75 471.97 738.81
  Q 472.13 739.35 471.89 739.86
  L 470.51 742.89
  Q 470.29 743.38 469.75 743.38
  L 467.89 743.38
  Q 467.32 743.38 467.11 743.90
  Q 466.45 745.52 466.19 744.80"
/>
<path stroke="#df8d8e" vector-effect="non-scaling-stroke" d="
  M 557.1841 438.3770
  A 6.22 6.22 0.0 0 0 550.9424 432.1788
  L 550.1824 432.1814
  A 6.22 6.22 0.0 0 0 543.9842 438.4231
  L 544.0359 453.2430
  A 6.22 6.22 0.0 0 0 550.2776 459.4412
  L 551.0376 459.4386
  A 6.22 6.22 0.0 0 0 557.2358 453.1969
  L 557.1841 438.3770"
/>
<path stroke="#ea8b8d" vector-effect="non-scaling-stroke" d="
  M 515.5544 409.8870
  A 6.09 6.09 0.0 0 0 509.5178 403.7441
  L 508.6978 403.7369
  A 6.09 6.09 0.0 0 0 502.5549 409.7736
  L 502.4256 424.5930
  A 6.09 6.09 0.0 0 0 508.4622 430.7359
  L 509.2822 430.7431
  A 6.09 6.09 0.0 0 0 515.4251 424.7064
  L 515.5544 409.8870"
/>
<path stroke="#a7d081" vector-effect="non-scaling-stroke" d="
  M 740.6397 685.2815
  A 7.93 7.63 51.1 0 0 741.5980 674.3186
  A 7.93 7.63 51.1 0 0 730.6803 672.9385
  A 7.93 7.63 51.1 0 0 729.7220 683.9014
  A 7.93 7.63 51.1 0 0 740.6397 685.2815"
/>
<path stroke="#a7d081" vector-effect="non-scaling-stroke" d="
  M 738.03 679.33
  C 742.93 675.35 735.48 670.50 732.66 674.56
  C 731.50 676.23 731.46 680.66 731.85 682.26
  C 733.06 687.29 741.17 685.25 737.89 680.22
  Q 737.56 679.72 738.03 679.33"
/>
<path stroke="#a7d081" vector-effect="non-scaling-stroke" d="
  M 737.66 676.56
  A 2.08 2.08 0.0 0 0 735.58 674.48
  A 2.08 2.08 0.0 0 0 733.50 676.56
  A 2.08 2.08 0.0 0 0 735.58 678.64
  A 2.08 2.08 0.0 0 0 737.66 676.56"
/>
<path stroke="#a7d081" vector-effect="non-scaling-stroke" d="
  M 733.99 679.25
  L 733.76 679.04
  Q 733.30 678.61 733.13 679.22
  Q 732.13 682.94 735.22 683.94
  A 1.60 1.59 84.5 0 0 737.10 681.65
  Q 736.29 680.17 734.70 679.67
  Q 734.30 679.54 733.99 679.25"
/>
<path stroke="#cc868a" vector-effect="non-scaling-stroke" d="
  M 647.17 745.20
  Q 645.64 748.90 648.00 751.21
  C 651.55 754.67 658.68 753.28 662.03 750.30
  C 670.25 743.02 650.44 737.27 647.17 745.20"
/>
<path stroke="#df8d8e" vector-effect="non-scaling-stroke" d="
  M 438.2195 746.5791
  A 8.82 5.88 -2.8 0 0 429.1228 741.1370
  A 8.82 5.88 -2.8 0 0 420.6005 747.4409
  A 8.82 5.88 -2.8 0 0 429.6972 752.8830
  A 8.82 5.88 -2.8 0 0 438.2195 746.5791"
/>
</g>
<path fill="#f3fef3" d="
  M 0.00 0.00
  L 1024.00 0.00
  L 1024.00 1024.00
  L 0.00 1024.00
  L 0.00 0.00
  Z
  M 500.64 340.97
  C 498.43 329.83 495.35 319.97 488.70 310.72
  Q 470.46 286.80 440.64 282.57
  C 435.49 281.84 419.02 279.80 414.62 283.81
  A 1.46 1.42 73.0 0 0 414.17 284.68
  Q 413.10 292.63 414.01 299.50
  Q 418.67 334.47 448.29 353.62
  A 1.01 1.00 -57.4 0 1 448.59 355.01
  Q 440.70 367.56 438.01 382.32
  Q 437.10 387.30 437.72 389.69
  C 439.45 396.43 448.59 397.40 454.52 396.57
  C 478.38 394.37 497.17 379.39 502.18 355.24
  Q 502.35 354.80 503.29 354.21
  A 1.54 1.52 -57.7 0 1 504.24 353.99
  Q 509.61 354.52 515.01 354.95
  Q 515.82 355.02 515.84 355.81
  Q 518.39 363.80 522.34 371.12
  C 529.74 384.82 544.86 394.64 560.23 396.40
  C 572.39 397.78 583.06 394.72 579.18 379.49
  Q 575.75 365.99 568.49 354.00
  A 0.53 0.53 0.0 0 1 568.73 353.24
  C 571.70 351.99 574.52 350.70 576.98 348.71
  C 595.37 333.84 604.95 311.06 603.96 287.50
  C 603.83 284.38 603.07 282.55 599.66 282.07
  Q 590.88 280.84 581.87 281.88
  C 558.11 283.17 535.33 296.99 525.21 318.95
  Q 521.43 327.16 517.64 340.20
  Q 517.54 321.67 518.92 303.91
  C 520.09 288.80 520.59 279.78 525.93 268.30
  C 529.36 260.93 518.52 254.70 513.00 253.59
  C 499.58 250.89 495.45 261.67 495.35 272.64
  C 495.23 285.00 496.39 296.03 498.40 310.37
  Q 500.52 325.51 501.75 340.74
  A 0.46 0.46 0.0 0 1 501.19 341.23
  Q 500.91 341.16 500.64 340.97
  Z
  M 362.63 278.01
  C 336.58 282.98 319.08 305.90 319.69 332.28
  Q 319.84 339.11 319.84 339.22
  Q 319.76 390.93 319.75 442.62
  C 319.75 451.68 323.00 460.51 332.15 463.91
  C 341.40 467.34 352.52 462.64 356.10 453.62
  Q 357.49 450.13 357.51 443.18
  Q 357.72 354.57 357.97 331.75
  Q 358.09 320.76 366.42 316.98
  C 372.91 314.03 384.98 315.17 393.07 315.34
  C 398.31 315.45 399.65 312.86 398.27 307.94
  Q 394.25 293.62 398.89 279.23
  A 1.06 1.06 0.0 0 0 398.66 278.20
  Q 397.66 277.12 395.50 277.11
  Q 384.46 277.06 373.42 277.18
  Q 366.61 277.25 362.63 278.01
  Z
  M 643.40 315.26
  C 649.64 315.29 656.02 319.82 658.44 325.29
  Q 659.86 328.50 659.87 335.42
  Q 659.93 388.68 660.05 441.94
  Q 660.06 448.70 660.92 451.49
  C 666.33 469.14 690.47 469.71 696.82 452.60
  Q 698.20 448.88 698.17 441.21
  Q 697.92 388.87 698.23 336.53
  Q 698.30 325.04 696.97 319.06
  Q 692.08 297.17 672.29 284.49
  Q 660.29 276.81 648.51 276.94
  Q 634.63 277.10 620.53 277.14
  A 2.02 2.01 81.0 0 0 618.62 279.78
  Q 623.68 295.25 618.11 310.45
  Q 617.97 310.84 618.05 311.25
  Q 618.86 315.17 622.38 315.18
  Q 632.88 315.20 643.40 315.26
  Z
  M 549.22 412.66
  C 532.57 408.34 520.38 398.63 510.29 384.93
  A 1.33 1.33 0.0 0 0 508.18 384.89
  Q 499.61 395.60 489.05 403.95
  Q 477.49 411.04 464.53 413.65
  Q 451.31 416.26 441.09 413.66
  C 427.88 410.31 418.37 399.01 420.33 385.50
  Q 421.80 375.44 426.37 366.58
  A 1.25 1.24 36.4 0 0 426.15 365.15
  L 421.34 360.18
  A 2.18 2.18 0.0 0 0 418.53 359.91
  C 393.46 377.53 376.09 404.86 374.67 436.00
  C 373.95 451.78 375.38 470.01 380.35 485.33
  Q 386.32 503.90 396.18 520.82
  Q 408.77 541.73 423.64 560.88
  Q 431.90 572.20 441.79 582.31
  Q 457.01 599.95 475.81 613.55
  Q 482.23 617.88 488.42 620.44
  C 509.30 628.50 528.47 623.90 545.61 610.61
  C 564.55 595.92 579.22 579.92 595.36 559.90
  C 604.48 548.60 610.92 538.57 618.58 526.11
  C 634.37 500.43 644.79 471.26 643.74 442.07
  Q 643.40 425.81 638.20 410.57
  Q 630.34 388.86 613.96 372.68
  Q 606.66 365.48 598.45 359.63
  A 0.94 0.93 -48.7 0 0 597.27 359.71
  L 591.01 365.54
  A 0.73 0.73 0.0 0 0 590.89 366.46
  C 597.07 376.21 600.02 389.96 594.14 400.51
  C 585.68 415.68 563.75 416.78 549.22 412.66
  Z
  M 689.62 635.87
  C 696.79 624.50 698.08 615.82 698.11 601.26
  Q 698.22 553.56 698.17 505.87
  Q 698.16 500.02 694.49 494.88
  C 690.13 488.75 683.06 485.68 675.68 487.26
  Q 659.63 490.69 659.73 508.01
  Q 660.01 554.66 659.90 601.32
  Q 659.88 608.98 658.48 612.48
  C 654.57 622.23 646.56 622.56 636.11 622.53
  Q 598.07 622.41 560.49 622.68
  A 2.75 2.74 23.1 0 0 558.64 623.42
  C 530.64 649.56 486.35 649.68 458.60 623.20
  A 3.04 3.03 66.6 0 0 456.48 622.36
  Q 417.16 622.57 377.51 622.48
  C 368.90 622.47 362.34 620.48 359.01 612.44
  Q 357.63 609.12 357.66 602.38
  Q 357.85 558.40 357.65 514.43
  Q 357.60 503.82 357.13 501.48
  C 353.50 483.42 327.27 481.50 321.14 498.75
  Q 319.71 502.77 319.74 511.42
  Q 319.87 555.92 319.71 600.44
  Q 319.66 613.77 321.08 619.98
  C 325.63 639.96 342.57 657.85 363.53 660.74
  Q 365.99 661.08 383.51 661.09
  Q 514.69 661.16 645.89 661.11
  C 664.51 661.11 679.70 651.63 689.62 635.87
  Z
  M 727.60 683.83
  C 729.31 688.60 736.35 689.11 740.12 687.43
  C 748.87 683.54 744.89 671.57 736.94 670.24
  C 728.63 668.85 725.02 676.63 727.60 683.83
  Z
  M 537.41 723.84
  Q 541.49 731.94 551.55 734.46
  C 556.99 735.80 570.36 737.70 567.88 745.90
  C 566.47 750.53 559.67 752.02 555.56 751.38
  Q 548.23 750.24 542.95 745.47
  A 2.03 2.02 -38.4 0 0 540.59 745.20
  Q 537.24 747.08 535.04 749.77
  C 527.92 758.48 568.04 774.56 579.39 752.41
  C 584.23 742.96 580.61 732.08 570.75 727.60
  L 552.30 721.35
  Q 548.01 718.67 548.48 714.75
  C 549.27 708.11 557.77 706.88 563.02 708.56
  Q 567.49 709.99 571.58 712.59
  Q 572.03 712.88 572.39 712.48
  L 578.33 705.94
  A 2.11 2.10 41.6 0 0 578.15 702.94
  Q 569.52 695.48 559.12 695.45
  Q 551.35 695.43 545.52 698.55
  C 535.93 703.67 532.77 713.82 537.41 723.84
  Z
  M 283.52 724.04
  C 288.58 732.57 297.40 734.27 307.01 736.95
  Q 309.47 737.64 311.81 739.39
  C 316.98 743.25 313.47 749.23 308.43 750.53
  C 303.24 751.87 298.23 750.90 293.67 748.11
  C 291.52 746.80 288.66 743.49 285.89 744.93
  C 281.80 747.05 276.19 751.46 282.29 756.00
  Q 292.42 763.53 303.50 763.93
  Q 314.76 764.34 321.93 757.96
  C 333.82 747.37 329.00 729.39 313.50 725.49
  C 306.31 723.68 290.68 721.32 296.25 710.55
  Q 305.81 704.33 317.14 712.82
  A 0.99 0.98 40.1 0 0 318.44 712.71
  L 324.50 706.50
  A 1.91 1.91 0.0 0 0 324.61 703.96
  Q 318.40 696.34 308.52 695.44
  C 296.69 694.37 284.00 699.91 281.65 711.97
  Q 280.47 718.07 283.52 724.04
  Z
  M 340.60 738.15
  Q 340.24 743.38 340.47 748.96
  C 340.95 760.54 350.35 765.90 361.54 763.39
  C 363.89 762.86 365.64 761.58 365.88 758.98
  C 366.11 756.33 366.35 750.19 361.80 751.19
  C 357.39 752.15 353.61 751.29 353.54 745.99
  Q 353.45 738.73 353.62 731.47
  L 353.61 726.37
  A 0.61 0.60 0.0 0 1 354.22 725.77
  L 363.62 725.76
  A 1.42 1.42 0.0 0 0 365.04 724.38
  L 365.31 715.55
  A 1.23 1.23 0.0 0 0 364.08 714.28
  L 354.01 714.27
  A 0.51 0.51 0.0 0 1 353.50 713.76
  L 353.60 702.75
  A 2.10 2.10 0.0 0 0 351.49 700.63
  L 343.35 700.66
  A 2.41 2.41 0.0 0 0 340.95 703.01
  L 340.67 713.40
  A 0.81 0.81 0.0 0 1 339.86 714.19
  L 333.10 714.21
  A 0.59 0.58 -0.5 0 0 332.52 714.79
  L 332.51 725.26
  Q 332.51 725.76 333.01 725.76
  L 340.01 725.79
  Q 340.56 725.79 340.56 726.33
  L 340.60 738.15
  Z
  M 663.22 735.18
  C 654.36 731.53 638.72 731.15 634.83 742.53
  C 631.48 752.32 636.78 763.17 647.77 763.98
  Q 655.84 764.57 662.32 759.65
  A 0.57 0.56 53.4 0 1 663.12 759.77
  C 666.85 764.94 676.47 766.79 676.65 757.65
  Q 676.87 746.08 676.66 734.49
  Q 676.55 728.19 675.07 724.71
  C 669.04 710.50 649.98 710.27 638.53 717.70
  C 636.80 718.83 636.50 719.86 637.39 721.72
  Q 639.04 725.20 641.18 727.81
  A 0.71 0.71 0.0 0 0 642.06 727.98
  C 647.67 724.94 654.07 723.11 659.47 725.80
  Q 664.90 728.51 663.68 734.94
  Q 663.60 735.34 663.22 735.18
  Z
  M 430.99 724.97
  Q 438.66 727.37 438.21 734.55
  A 0.51 0.51 0.0 0 1 437.53 735.00
  C 430.01 732.28 418.53 731.70 412.32 737.67
  C 407.38 742.42 407.01 750.77 410.53 756.35
  C 416.39 765.66 428.67 765.92 437.45 760.37
  A 1.08 1.07 -35.3 0 1 438.87 760.61
  C 441.79 764.38 451.15 765.93 451.22 759.25
  Q 451.32 749.97 451.25 740.71
  C 451.18 731.64 451.63 727.61 447.52 721.36
  Q 443.06 714.99 434.25 713.47
  Q 421.11 711.21 410.62 719.27
  A 1.19 1.19 0.0 0 0 410.37 720.90
  L 415.96 728.73
  A 0.34 0.34 0.0 0 0 416.46 728.78
  Q 422.43 723.45 430.99 724.97
  Z
  M 590.86 752.15
  C 598.79 765.56 615.73 767.48 627.70 758.45
  Q 629.11 757.38 630.01 755.28
  A 1.16 1.15 -48.2 0 0 629.96 754.27
  C 628.61 751.84 625.84 749.84 623.41 748.37
  Q 621.38 747.14 620.30 747.98
  Q 611.99 754.44 604.28 748.03
  C 594.81 737.30 603.67 720.06 618.30 727.82
  Q 620.12 728.79 622.05 729.70
  Q 622.49 729.91 622.82 729.54
  L 628.88 722.89
  A 1.57 1.56 -42.3 0 0 628.98 720.90
  C 624.92 715.41 618.88 712.84 611.90 713.01
  Q 591.96 713.48 587.47 734.00
  Q 585.37 743.61 590.86 752.15
  Z
  M 708.36 726.05
  C 717.73 725.36 719.05 730.95 719.05 739.03
  Q 719.06 748.44 719.23 757.90
  Q 719.28 760.72 720.58 762.01
  C 723.08 764.48 728.34 764.65 730.85 761.76
  Q 731.84 760.62 731.87 758.00
  Q 732.00 745.49 731.94 733.01
  Q 731.88 722.94 724.17 716.71
  C 716.56 710.64 706.98 712.54 700.61 719.32
  Q 700.23 719.72 700.18 719.17
  Q 699.67 713.84 693.73 713.38
  C 688.99 713.02 686.98 715.08 686.99 719.85
  Q 687.05 739.80 687.27 759.75
  C 687.34 766.21 700.01 764.39 700.02 760.00
  Q 700.03 748.59 700.20 737.13
  C 700.29 730.75 701.90 727.16 708.36 726.05
  Z
  M 387.06 719.66
  A 0.64 0.64 0.0 0 1 386.03 718.98
  C 388.25 712.05 373.76 711.70 373.84 717.76
  Q 374.10 737.41 374.19 757.12
  Q 374.20 760.13 375.36 761.63
  C 378.24 765.35 387.18 764.59 387.21 758.74
  Q 387.26 749.62 387.39 740.50
  C 387.51 731.93 392.50 725.37 401.87 727.77
  A 1.32 1.32 0.0 0 0 403.35 727.12
  Q 405.41 723.23 407.02 719.15
  C 408.63 715.03 404.52 713.11 401.25 713.12
  C 394.92 713.13 391.72 715.58 387.06 719.66
  Z
  M 466.19 744.80
  Q 469.21 755.10 472.29 761.40
  C 473.40 763.68 475.81 763.43 477.66 763.74
  C 483.71 764.78 485.56 761.52 487.34 756.23
  Q 490.77 746.02 494.34 735.93
  A 0.55 0.54 -46.0 0 1 495.36 735.91
  Q 499.79 747.35 503.39 758.95
  Q 505.15 764.63 511.26 764.31
  C 516.55 764.03 518.12 759.57 519.38 755.47
  Q 524.17 739.84 529.43 724.37
  C 530.65 720.79 531.75 715.48 527.47 714.02
  C 520.24 711.55 518.42 715.70 516.62 721.82
  Q 513.59 732.10 510.70 742.38
  A 0.43 0.42 -48.3 0 1 509.90 742.43
  Q 505.41 731.39 502.20 719.77
  C 501.16 716.01 499.73 713.51 495.70 713.41
  C 491.99 713.32 488.87 714.13 487.85 718.14
  Q 484.56 731.12 479.56 743.38
  A 0.48 0.47 47.9 0 1 478.67 743.33
  L 473.54 726.45
  C 472.70 723.13 471.02 715.50 467.70 713.94
  C 463.70 712.05 456.27 713.76 458.34 719.97
  Q 462.44 732.23 466.19 744.80
  Z"
/>
<path fill="#003433" d="
  M 517.64 340.20
  Q 517.48 340.46 517.69 341.34
  A 1.35 1.35 0.0 0 0 519.85 342.06
  Q 534.00 330.52 549.30 322.20
  L 567.01 314.10
  A 0.76 0.75 -2.5 0 1 568.04 315.04
  Q 564.05 325.97 555.19 333.42
  Q 545.24 341.78 533.40 347.11
  A 0.51 0.51 0.0 0 0 533.41 348.04
  C 546.64 353.95 556.66 362.37 562.53 375.94
  A 0.86 0.86 0.0 0 1 561.41 377.08
  C 557.34 375.42 553.10 373.92 549.13 371.93
  Q 533.84 364.25 518.69 356.29
  C 517.84 355.84 516.79 355.83 515.84 355.81
  Q 515.82 355.02 515.01 354.95
  Q 509.61 354.52 504.24 353.99
  A 1.54 1.52 -57.7 0 0 503.29 354.21
  Q 502.35 354.80 502.18 355.24
  Q 486.66 362.96 471.81 370.62
  Q 469.22 371.95 459.06 375.53
  Q 457.13 376.16 456.85 376.06
  Q 455.36 375.53 455.91 374.47
  Q 466.05 354.66 487.19 347.62
  Q 487.72 347.44 487.20 347.24
  C 471.17 341.07 457.16 331.55 450.15 315.15
  A 0.55 0.54 -89.0 0 1 450.88 314.44
  L 476.52 326.59
  Q 486.63 331.82 496.84 339.65
  Q 498.52 340.94 500.64 340.97
  Q 500.91 341.16 501.19 341.23
  A 0.46 0.46 0.0 0 0 501.75 340.74
  Q 500.52 325.51 498.40 310.37
  C 496.39 296.03 495.23 285.00 495.35 272.64
  C 495.45 261.67 499.58 250.89 513.00 253.59
  C 518.52 254.70 529.36 260.93 525.93 268.30
  C 520.59 279.78 520.09 288.80 518.92 303.91
  Q 517.54 321.67 517.64 340.20
  Z"
/>
<path fill="#003433" d="
  M 319.69 332.28
  C 319.08 305.90 336.58 282.98 362.63 278.01
  Q 366.61 277.25 373.42 277.18
  Q 384.46 277.06 395.50 277.11
  Q 397.66 277.12 398.66 278.20
  A 1.06 1.06 0.0 0 1 398.89 279.23
  Q 394.25 293.62 398.27 307.94
  C 399.65 312.86 398.31 315.45 393.07 315.34
  C 384.98 315.17 372.91 314.03 366.42 316.98
  Q 358.09 320.76 357.97 331.75
  Q 357.72 354.57 357.51 443.18
  Q 357.49 450.13 356.10 453.62
  C 352.52 462.64 341.40 467.34 332.15 463.91
  C 323.00 460.51 319.75 451.68 319.75 442.62
  Q 319.76 390.93 319.84 339.22
  Q 319.84 339.11 319.69 332.28
  Z"
/>
<path fill="#003433" d="
  M 658.44 325.29
  C 656.02 319.82 649.64 315.29 643.40 315.26
  Q 632.88 315.20 622.38 315.18
  Q 618.86 315.17 618.05 311.25
  Q 617.97 310.84 618.11 310.45
  Q 623.68 295.25 618.62 279.78
  A 2.02 2.01 81.0 0 1 620.53 277.14
  Q 634.63 277.10 648.51 276.94
  Q 660.29 276.81 672.29 284.49
  Q 692.08 297.17 696.97 319.06
  Q 698.30 325.04 698.23 336.53
  Q 697.92 388.87 698.17 441.21
  Q 698.20 448.88 696.82 452.60
  C 690.47 469.71 666.33 469.14 660.92 451.49
  Q 660.06 448.70 660.05 441.94
  Q 659.93 388.68 659.87 335.42
  Q 659.86 328.50 658.44 325.29
  Z"
/>
<path fill="#88b90d" d="
  M 488.70 310.72
  Q 487.75 311.03 487.29 310.22
  A 1.05 1.05 0.0 0 0 485.38 310.39
  L 482.31 319.28
  Q 482.16 319.70 481.79 319.94
  L 481.41 320.19
  Q 480.97 320.47 480.83 320.98
  L 479.42 326.10
  Q 479.29 326.58 478.79 326.58
  L 476.52 326.59
  L 450.88 314.44
  A 0.55 0.54 -89.0 0 0 450.15 315.15
  C 457.16 331.55 471.17 341.07 487.20 347.24
  Q 487.72 347.44 487.19 347.62
  Q 466.05 354.66 455.91 374.47
  Q 455.36 375.53 456.85 376.06
  Q 457.13 376.16 459.06 375.53
  Q 458.73 380.17 455.80 383.69
  Q 455.68 383.84 455.87 383.85
  Q 456.02 383.86 456.13 383.93
  Q 456.43 384.13 456.27 384.46
  Q 454.94 387.19 453.46 389.87
  Q 453.37 390.04 453.40 390.17
  Q 453.44 390.36 453.58 390.52
  Q 453.85 390.82 453.59 391.12
  C 452.45 392.44 452.03 392.93 451.16 394.82
  Q 450.41 396.46 448.14 396.08
  Q 448.12 396.08 448.12 396.10
  Q 448.12 396.11 448.12 396.12
  Q 448.12 396.17 448.17 396.18
  L 454.52 396.57
  C 448.59 397.40 439.45 396.43 437.72 389.69
  Q 437.10 387.30 438.01 382.32
  Q 440.70 367.56 448.59 355.01
  A 1.01 1.00 -57.4 0 0 448.29 353.62
  Q 418.67 334.47 414.01 299.50
  Q 413.10 292.63 414.17 284.68
  A 1.46 1.42 73.0 0 1 414.62 283.81
  C 419.02 279.80 435.49 281.84 440.64 282.57
  Q 470.46 286.80 488.70 310.72
  Z"
/>
<path fill="#5aa10f" d="
  M 515.84 355.81
  C 516.79 355.83 517.84 355.84 518.69 356.29
  Q 533.84 364.25 549.13 371.93
  C 553.10 373.92 557.34 375.42 561.41 377.08
  A 0.86 0.86 0.0 0 0 562.53 375.94
  C 556.66 362.37 546.64 353.95 533.41 348.04
  A 0.51 0.51 0.0 0 1 533.40 347.11
  Q 545.24 341.78 555.19 333.42
  Q 564.05 325.97 568.04 315.04
  A 0.76 0.75 -2.5 0 0 567.01 314.10
  L 549.30 322.20
  Q 552.01 316.66 554.50 314.00
  Q 557.14 311.15 561.78 307.42
  C 567.43 302.88 571.90 297.74 577.12 292.88
  C 578.93 291.19 580.05 289.40 581.50 287.43
  Q 583.26 285.01 581.87 281.88
  Q 590.88 280.84 599.66 282.07
  C 603.07 282.55 603.83 284.38 603.96 287.50
  C 604.95 311.06 595.37 333.84 576.98 348.71
  C 574.52 350.70 571.70 351.99 568.73 353.24
  A 0.53 0.53 0.0 0 0 568.49 354.00
  Q 575.75 365.99 579.18 379.49
  C 583.06 394.72 572.39 397.78 560.23 396.40
  C 544.86 394.64 529.74 384.82 522.34 371.12
  Q 518.39 363.80 515.84 355.81
  Z"
/>
<path fill="#88b90d" d="
  M 581.87 281.88
  Q 583.26 285.01 581.50 287.43
  C 580.05 289.40 578.93 291.19 577.12 292.88
  C 571.90 297.74 567.43 302.88 561.78 307.42
  Q 557.14 311.15 554.50 314.00
  Q 552.01 316.66 549.30 322.20
  Q 534.00 330.52 519.85 342.06
  A 1.35 1.35 0.0 0 1 517.69 341.34
  Q 517.48 340.46 517.64 340.20
  Q 521.43 327.16 525.21 318.95
  C 535.33 296.99 558.11 283.17 581.87 281.88
  Z"
/>
<path fill="#5aa10f" d="
  M 488.70 310.72
  C 495.35 319.97 498.43 329.83 500.64 340.97
  Q 498.52 340.94 496.84 339.65
  Q 486.63 331.82 476.52 326.59
  L 478.79 326.58
  Q 479.29 326.58 479.42 326.10
  L 480.83 320.98
  Q 480.97 320.47 481.41 320.19
  L 481.79 319.94
  Q 482.16 319.70 482.31 319.28
  L 485.38 310.39
  A 1.05 1.05 0.0 0 1 487.29 310.22
  Q 487.75 311.03 488.70 310.72
  Z"
/>
<path fill="#5aa10f" d="
  M 502.18 355.24
  C 497.17 379.39 478.38 394.37 454.52 396.57
  L 448.17 396.18
  Q 448.12 396.17 448.12 396.12
  Q 448.12 396.11 448.12 396.10
  Q 448.12 396.08 448.14 396.08
  Q 450.41 396.46 451.16 394.82
  C 452.03 392.93 452.45 392.44 453.59 391.12
  Q 453.85 390.82 453.58 390.52
  Q 453.44 390.36 453.40 390.17
  Q 453.37 390.04 453.46 389.87
  Q 454.94 387.19 456.27 384.46
  Q 456.43 384.13 456.13 383.93
  Q 456.02 383.86 455.87 383.85
  Q 455.68 383.84 455.80 383.69
  Q 458.73 380.17 459.06 375.53
  Q 469.22 371.95 471.81 370.62
  Q 486.66 362.96 502.18 355.24
  Z"
/>
<path fill="#ca1b28" d="
  M 613.96 372.68
  Q 612.75 375.42 610.45 377.50
  C 609.31 378.53 608.88 379.64 608.30 380.98
  Q 608.22 381.17 608.11 380.99
  L 607.95 380.75
  Q 607.72 380.39 607.45 380.72
  L 605.67 382.94
  Q 605.36 383.32 605.30 383.82
  Q 605.03 386.18 604.49 388.52
  C 604.06 390.44 602.62 391.83 602.18 393.94
  A 0.34 0.34 0.0 0 0 602.68 394.31
  L 603.17 394.04
  A 0.15 0.15 0.0 0 1 603.40 394.17
  L 603.40 394.47
  Q 603.40 394.69 603.25 394.85
  Q 602.69 395.46 602.74 396.24
  A 0.11 0.10 -26.1 0 0 602.93 396.30
  Q 603.02 396.21 603.12 396.13
  Q 603.52 395.81 603.32 396.28
  L 602.73 397.62
  Q 602.54 398.06 602.12 398.28
  Q 600.34 399.18 599.58 400.62
  Q 597.14 405.28 594.37 408.23
  Q 590.83 412.01 587.54 415.99
  C 582.82 421.68 578.59 428.86 573.98 435.18
  A 2.32 2.27 -86.8 0 1 573.26 435.84
  C 571.68 436.78 571.22 439.22 569.22 440.55
  A 0.08 0.08 0.0 0 0 569.19 440.66
  Q 569.27 440.78 569.40 440.84
  A 0.22 0.21 -24.7 0 1 569.25 441.24
  L 568.70 441.11
  Q 568.40 441.04 568.24 441.31
  L 565.13 446.86
  Q 564.89 447.27 565.03 447.73
  Q 565.40 448.91 564.24 449.48
  Q 563.70 449.74 563.41 450.26
  L 560.06 456.38
  Q 559.91 456.66 559.61 456.79
  Q 559.30 456.92 558.99 456.87
  Q 558.26 456.73 558.80 457.45
  Q 559.39 458.24 558.87 458.99
  Q 557.58 460.90 557.25 462.17
  Q 557.14 462.63 556.81 462.97
  L 551.84 468.20
  A 0.79 0.78 -24.4 0 0 551.61 468.80
  Q 551.68 470.01 550.93 469.74
  A 0.67 0.66 25.4 0 0 550.14 470.02
  Q 541.89 483.40 533.15 494.00
  Q 524.27 504.76 512.53 515.03
  Q 512.17 515.35 512.15 515.99
  Q 512.12 516.46 511.77 516.76
  Q 500.72 526.18 490.93 536.91
  Q 490.63 537.24 490.18 537.21
  Q 489.49 537.15 488.96 537.74
  Q 481.98 545.51 474.35 552.67
  A 1.48 1.42 -14.4 0 0 473.97 553.28
  Q 473.81 553.84 473.37 554.22
  Q 472.31 555.13 472.24 555.21
  Q 463.87 565.04 454.52 573.98
  Q 454.16 574.32 454.31 574.79
  L 454.40 575.08
  Q 454.52 575.49 454.18 575.74
  Q 453.14 576.52 451.22 578.37
  Q 447.10 582.36 441.79 582.31
  Q 431.90 572.20 423.64 560.88
  Q 423.94 558.89 425.55 561.88
  Q 425.63 562.01 425.78 561.98
  L 426.28 561.85
  Q 426.34 561.84 426.30 561.80
  Q 426.18 561.68 426.05 561.57
  Q 425.89 561.44 426.06 561.31
  L 428.38 559.57
  A 0.28 0.28 0.0 0 1 428.80 559.66
  L 429.00 560.03
  Q 429.16 560.33 429.13 559.99
  Q 429.10 559.70 429.24 559.46
  Q 429.36 559.24 429.71 559.10
  Q 435.72 556.59 439.27 553.76
  Q 447.14 547.48 451.36 544.85
  Q 451.81 544.57 451.72 544.17
  Q 451.62 543.70 452.02 543.45
  L 455.47 541.27
  Q 455.87 541.02 456.11 540.62
  Q 457.35 538.57 459.79 538.87
  Q 460.36 538.95 460.32 538.37
  Q 459.64 528.38 460.68 518.84
  Q 460.85 527.47 460.96 536.25
  Q 461.03 541.87 466.51 542.65
  C 471.93 543.41 473.95 540.35 473.99 535.25
  Q 474.04 528.98 474.00 522.74
  C 473.98 519.00 472.94 516.70 469.43 515.51
  Q 469.66 514.88 470.08 514.78
  Q 470.23 514.74 470.39 514.82
  Q 470.55 514.91 470.69 515.02
  Q 471.06 515.34 471.54 515.24
  Q 474.22 514.70 475.41 512.28
  Q 475.63 511.82 476.07 511.56
  C 478.11 510.31 479.17 508.26 480.96 507.01
  Q 486.15 503.36 490.02 498.33
  Q 491.29 496.69 493.13 495.01
  C 494.80 493.49 496.17 491.14 498.32 490.39
  Q 498.85 490.20 498.87 490.76
  Q 498.88 490.89 498.87 491.02
  Q 498.81 492.31 499.61 491.24
  L 499.96 490.78
  Q 500.23 490.42 500.51 490.77
  Q 500.61 490.88 500.77 491.02
  Q 501.00 491.20 501.01 490.91
  L 501.42 479.14
  A 0.85 0.83 79.4 0 1 501.92 478.40
  Q 503.18 477.83 503.03 478.50
  C 501.08 481.55 501.82 489.44 502.00 496.08
  C 502.27 506.36 515.28 505.26 515.19 496.74
  Q 515.11 490.24 515.38 483.61
  C 515.67 476.53 509.05 474.76 503.38 478.03
  Q 503.20 478.04 503.14 477.81
  Q 503.10 477.64 503.25 477.54
  L 506.87 474.96
  A 0.64 0.63 28.5 0 1 507.30 474.84
  L 511.39 475.19
  Q 511.92 475.24 512.33 474.90
  Q 516.77 471.26 517.91 465.52
  A 2.02 1.95 71.5 0 1 518.34 464.62
  Q 526.63 454.93 532.45 443.60
  Q 533.25 442.06 535.24 439.72
  Q 537.40 437.21 538.35 433.92
  Q 538.48 433.47 538.92 433.63
  L 539.37 433.79
  Q 539.83 433.95 540.10 433.54
  Q 541.80 430.92 542.34 427.83
  Q 542.37 427.63 542.52 427.49
  L 542.75 427.26
  Q 542.97 427.04 542.95 426.73
  Q 542.87 425.39 543.71 424.32
  A 0.23 0.23 0.0 0 1 544.12 424.45
  Q 544.12 424.58 544.11 424.71
  A 0.15 0.15 0.0 0 0 544.38 424.82
  L 548.51 419.35
  A 0.60 0.60 0.0 0 0 548.63 418.99
  L 548.63 418.58
  A 0.07 0.07 0.0 0 0 548.53 418.52
  L 548.20 418.69
  A 0.25 0.25 0.0 0 1 547.91 418.28
  Q 549.54 416.73 548.59 414.71
  Q 548.44 414.37 548.56 414.01
  L 548.80 413.36
  Q 548.90 413.08 548.60 413.10
  L 547.28 413.19
  Q 547.20 413.19 547.14 413.13
  Q 547.06 413.05 546.95 412.97
  A 0.24 0.24 0.0 0 1 547.11 412.54
  L 549.22 412.66
  C 563.75 416.78 585.68 415.68 594.14 400.51
  C 600.02 389.96 597.07 376.21 590.89 366.46
  A 0.73 0.73 0.0 0 1 591.01 365.54
  L 597.27 359.71
  A 0.94 0.93 -48.7 0 1 598.45 359.63
  Q 606.66 365.48 613.96 372.68
  Z
  M 557.1841 438.3770
  A 6.22 6.22 0.0 0 0 550.9424 432.1788
  L 550.1824 432.1814
  A 6.22 6.22 0.0 0 0 543.9842 438.4231
  L 544.0359 453.2430
  A 6.22 6.22 0.0 0 0 550.2776 459.4412
  L 551.0376 459.4386
  A 6.22 6.22 0.0 0 0 557.2358 453.1969
  L 557.1841 438.3770
  Z"
/>
<path fill="#fe292f" d="
  M 464.53 413.65
  Q 458.38 416.49 451.60 416.29
  Q 451.07 416.27 450.73 416.67
  L 447.89 420.08
  Q 447.64 420.37 447.28 420.50
  Q 446.15 420.88 445.39 421.85
  Q 445.08 422.24 444.59 422.24
  Q 443.56 422.24 443.30 423.27
  Q 443.24 423.50 443.25 423.50
  Q 443.34 423.53 443.44 423.56
  A 0.04 0.03 26.3 0 1 443.47 423.61
  Q 442.08 424.66 439.29 428.04
  Q 438.00 429.61 433.05 433.43
  Q 432.64 433.74 432.48 434.23
  C 431.97 435.84 431.77 436.44 430.58 437.68
  Q 424.67 443.81 417.29 448.12
  Q 416.77 448.42 417.06 448.94
  Q 417.64 449.98 416.70 450.85
  Q 416.36 451.16 416.34 451.61
  Q 416.21 454.37 413.90 456.10
  Q 413.81 456.17 413.77 456.06
  Q 413.73 455.93 413.69 455.81
  A 0.09 0.09 0.0 0 0 413.52 455.80
  L 412.82 457.07
  Q 412.57 457.53 412.22 457.14
  Q 411.77 456.65 411.30 456.71
  C 413.97 455.42 414.98 453.40 415.02 450.32
  Q 415.10 443.79 414.95 437.24
  Q 414.81 431.53 410.68 429.63
  C 407.89 428.34 404.91 429.43 403.29 431.88
  C 401.04 435.29 402.27 446.14 402.42 450.26
  Q 402.72 458.71 411.30 456.71
  Q 410.62 458.04 409.21 458.56
  Q 406.91 459.41 406.75 459.50
  Q 398.84 463.99 392.25 470.24
  Q 392.18 470.31 389.45 473.41
  Q 388.02 475.04 386.12 476.12
  Q 385.80 476.30 385.70 476.66
  Q 384.84 479.91 381.67 480.14
  Q 381.05 480.19 380.95 480.80
  Q 380.61 483.05 381.20 485.26
  Q 381.29 485.60 381.02 485.37
  Q 380.66 485.06 380.35 485.33
  C 375.38 470.01 373.95 451.78 374.67 436.00
  C 376.09 404.86 393.46 377.53 418.53 359.91
  A 2.18 2.18 0.0 0 1 421.34 360.18
  L 426.15 365.15
  A 1.25 1.24 36.4 0 1 426.37 366.58
  Q 421.80 375.44 420.33 385.50
  C 418.37 399.01 427.88 410.31 441.09 413.66
  Q 451.31 416.26 464.53 413.65
  Z"
/>
<path fill="#a40d20" d="
  M 613.96 372.68
  Q 630.34 388.86 638.20 410.57
  Q 636.56 412.13 635.60 413.70
  Q 633.56 417.04 633.52 417.11
  Q 630.75 420.86 628.32 424.85
  Q 628.04 425.31 628.32 425.63
  Q 628.61 425.97 628.38 426.35
  C 625.95 430.29 623.53 434.18 621.42 438.30
  Q 620.08 440.93 617.70 442.85
  A 0.36 0.36 0.0 0 1 617.12 442.62
  L 615.94 435.06
  C 615.00 429.02 607.35 427.37 604.05 431.86
  Q 602.79 433.59 602.78 437.42
  Q 602.77 443.84 603.01 450.23
  Q 603.33 458.84 611.65 456.99
  L 610.06 461.08
  Q 609.88 461.56 609.43 461.79
  Q 607.59 462.72 607.87 464.84
  Q 607.94 465.38 607.50 465.70
  Q 603.43 468.62 599.92 472.16
  Q 598.47 473.62 596.56 474.77
  Q 594.69 475.90 593.01 477.20
  C 588.02 474.64 582.33 476.16 582.06 482.22
  Q 581.62 492.10 583.37 501.23
  L 580.35 505.58
  A 0.16 0.16 0.0 0 1 580.10 505.60
  L 579.85 505.35
  A 0.20 0.19 42.0 0 0 579.57 505.36
  L 559.93 527.61
  Q 559.64 527.94 559.21 527.84
  Q 558.97 527.78 558.72 527.70
  Q 558.21 527.55 558.18 528.09
  L 557.98 533.11
  A 0.18 0.17 -44.7 0 1 557.63 533.11
  L 557.37 521.16
  C 556.72 514.94 549.30 512.56 545.32 517.08
  Q 544.02 518.56 543.97 521.43
  Q 543.83 528.33 543.95 535.22
  C 544.01 538.87 545.30 541.32 548.70 542.44
  Q 548.66 544.02 546.90 543.90
  Q 546.64 543.88 546.65 544.15
  Q 546.66 544.46 546.42 544.67
  C 540.64 549.41 536.28 554.90 529.95 559.39
  Q 529.92 559.42 529.95 559.45
  Q 530.04 559.53 530.13 559.63
  A 0.17 0.17 0.0 0 1 530.10 559.88
  Q 525.57 563.15 521.62 567.12
  C 520.99 567.75 520.03 567.98 519.21 568.41
  A 1.13 1.12 -2.4 0 0 518.67 568.99
  Q 518.04 570.47 516.67 570.73
  Q 516.02 570.86 516.12 571.51
  Q 516.35 573.11 515.51 572.92
  Q 515.43 568.64 515.38 564.25
  C 515.31 558.12 507.58 555.26 504.05 559.71
  Q 502.74 561.36 502.71 564.63
  Q 502.60 576.22 502.76 579.50
  Q 502.89 582.35 505.64 584.26
  Q 504.19 585.60 502.85 587.25
  Q 500.71 589.88 500.26 590.39
  Q 489.09 602.72 475.81 613.55
  Q 457.01 599.95 441.79 582.31
  Q 447.10 582.36 451.22 578.37
  Q 453.14 576.52 454.18 575.74
  Q 454.52 575.49 454.40 575.08
  L 454.31 574.79
  Q 454.16 574.32 454.52 573.98
  Q 463.87 565.04 472.24 555.21
  Q 472.31 555.13 473.37 554.22
  Q 473.81 553.84 473.97 553.28
  A 1.48 1.42 -14.4 0 1 474.35 552.67
  Q 481.98 545.51 488.96 537.74
  Q 489.49 537.15 490.18 537.21
  Q 490.63 537.24 490.93 536.91
  Q 500.72 526.18 511.77 516.76
  Q 512.12 516.46 512.15 515.99
  Q 512.17 515.35 512.53 515.03
  Q 524.27 504.76 533.15 494.00
  Q 541.89 483.40 550.14 470.02
  A 0.67 0.66 25.4 0 1 550.93 469.74
  Q 551.68 470.01 551.61 468.80
  A 0.79 0.78 -24.4 0 1 551.84 468.20
  L 556.81 462.97
  Q 557.14 462.63 557.25 462.17
  Q 557.58 460.90 558.87 458.99
  Q 559.39 458.24 558.80 457.45
  Q 558.26 456.73 558.99 456.87
  Q 559.30 456.92 559.61 456.79
  Q 559.91 456.66 560.06 456.38
  L 563.41 450.26
  Q 563.70 449.74 564.24 449.48
  Q 565.40 448.91 565.03 447.73
  Q 564.89 447.27 565.13 446.86
  L 568.24 441.31
  Q 568.40 441.04 568.70 441.11
  L 569.25 441.24
  A 0.22 0.21 -24.7 0 0 569.40 440.84
  Q 569.27 440.78 569.19 440.66
  A 0.08 0.08 0.0 0 1 569.22 440.55
  C 571.22 439.22 571.68 436.78 573.26 435.84
  A 2.32 2.27 -86.8 0 0 573.98 435.18
  C 578.59 428.86 582.82 421.68 587.54 415.99
  Q 590.83 412.01 594.37 408.23
  Q 597.14 405.28 599.58 400.62
  Q 600.34 399.18 602.12 398.28
  Q 602.54 398.06 602.73 397.62
  L 603.32 396.28
  Q 603.52 395.81 603.12 396.13
  Q 603.02 396.21 602.93 396.30
  A 0.11 0.10 -26.1 0 1 602.74 396.24
  Q 602.69 395.46 603.25 394.85
  Q 603.40 394.69 603.40 394.47
  L 603.40 394.17
  A 0.15 0.15 0.0 0 0 603.17 394.04
  L 602.68 394.31
  A 0.34 0.34 0.0 0 1 602.18 393.94
  C 602.62 391.83 604.06 390.44 604.49 388.52
  Q 605.03 386.18 605.30 383.82
  Q 605.36 383.32 605.67 382.94
  L 607.45 380.72
  Q 607.72 380.39 607.95 380.75
  L 608.11 380.99
  Q 608.22 381.17 608.30 380.98
  C 608.88 379.64 609.31 378.53 610.45 377.50
  Q 612.75 375.42 613.96 372.68
  Z"
/>
<path fill="#e01827" d="
  M 549.22 412.66
  L 547.11 412.54
  A 0.24 0.24 0.0 0 0 546.95 412.97
  Q 547.06 413.05 547.14 413.13
  Q 547.20 413.19 547.28 413.19
  L 548.60 413.10
  Q 548.90 413.08 548.80 413.36
  L 548.56 414.01
  Q 548.44 414.37 548.59 414.71
  Q 549.54 416.73 547.91 418.28
  A 0.25 0.25 0.0 0 0 548.20 418.69
  L 548.53 418.52
  A 0.07 0.07 0.0 0 1 548.63 418.58
  L 548.63 418.99
  A 0.60 0.60 0.0 0 1 548.51 419.35
  L 544.38 424.82
  A 0.15 0.15 0.0 0 1 544.11 424.71
  Q 544.12 424.58 544.12 424.45
  A 0.23 0.23 0.0 0 0 543.71 424.32
  Q 542.87 425.39 542.95 426.73
  Q 542.97 427.04 542.75 427.26
  L 542.52 427.49
  Q 542.37 427.63 542.34 427.83
  Q 541.80 430.92 540.10 433.54
  Q 539.83 433.95 539.37 433.79
  L 538.92 433.63
  Q 538.48 433.47 538.35 433.92
  Q 537.40 437.21 535.24 439.72
  Q 533.25 442.06 532.45 443.60
  Q 526.63 454.93 518.34 464.62
  A 2.02 1.95 71.5 0 0 517.91 465.52
  Q 516.77 471.26 512.33 474.90
  Q 511.92 475.24 511.39 475.19
  L 507.30 474.84
  A 0.64 0.63 28.5 0 0 506.87 474.96
  L 503.25 477.54
  Q 503.10 477.64 503.14 477.81
  Q 503.20 478.04 503.38 478.03
  Q 503.58 478.10 503.03 478.50
  Q 503.18 477.83 501.92 478.40
  A 0.85 0.83 79.4 0 0 501.42 479.14
  L 501.01 490.91
  Q 501.00 491.20 500.77 491.02
  Q 500.61 490.88 500.51 490.77
  Q 500.23 490.42 499.96 490.78
  L 499.61 491.24
  Q 498.81 492.31 498.87 491.02
  Q 498.88 490.89 498.87 490.76
  Q 498.85 490.20 498.32 490.39
  C 496.17 491.14 494.80 493.49 493.13 495.01
  Q 491.29 496.69 490.02 498.33
  Q 486.15 503.36 480.96 507.01
  C 479.17 508.26 478.11 510.31 476.07 511.56
  Q 475.63 511.82 475.41 512.28
  Q 474.22 514.70 471.54 515.24
  Q 471.06 515.34 470.69 515.02
  Q 470.55 514.91 470.39 514.82
  Q 470.23 514.74 470.08 514.78
  Q 469.66 514.88 469.43 515.51
  Q 464.08 514.00 460.68 518.84
  Q 459.64 528.38 460.32 538.37
  Q 460.36 538.95 459.79 538.87
  Q 457.35 538.57 456.11 540.62
  Q 455.87 541.02 455.47 541.27
  L 452.02 543.45
  Q 451.62 543.70 451.72 544.17
  Q 451.81 544.57 451.36 544.85
  Q 447.14 547.48 439.27 553.76
  Q 435.72 556.59 429.71 559.10
  Q 429.36 559.24 429.24 559.46
  Q 429.10 559.70 429.13 559.99
  Q 429.16 560.33 429.00 560.03
  L 428.80 559.66
  A 0.28 0.28 0.0 0 0 428.38 559.57
  L 426.06 561.31
  Q 425.89 561.44 426.05 561.57
  Q 426.18 561.68 426.30 561.80
  Q 426.34 561.84 426.28 561.85
  L 425.78 561.98
  Q 425.63 562.01 425.55 561.88
  Q 423.94 558.89 423.64 560.88
  Q 408.77 541.73 396.18 520.82
  L 397.16 521.16
  Q 397.99 521.46 397.77 520.60
  Q 397.57 519.86 398.34 520.11
  A 0.40 0.39 -3.4 0 0 398.82 519.57
  L 398.57 519.02
  Q 398.40 518.66 398.66 518.36
  Q 399.00 517.97 399.21 518.14
  Q 399.61 518.49 399.81 518.00
  Q 401.35 514.31 403.56 513.27
  Q 413.58 508.54 420.49 499.94
  Q 420.81 499.55 421.29 499.39
  L 424.34 498.36
  C 426.34 502.71 430.63 504.58 434.59 501.78
  C 438.33 499.14 437.37 488.63 437.21 481.32
  C 437.18 479.62 436.54 478.74 435.64 477.41
  Q 435.11 476.57 435.11 475.64
  Q 435.11 475.14 435.51 474.83
  Q 443.54 468.60 452.39 463.61
  Q 455.32 461.95 458.52 458.81
  Q 459.02 458.32 460.05 458.54
  Q 460.42 458.62 460.48 458.25
  Q 460.68 456.96 461.19 457.39
  Q 465.31 460.95 469.49 459.44
  Q 473.61 457.95 473.80 454.00
  Q 473.97 450.41 473.73 437.74
  Q 473.68 435.24 470.52 433.21
  Q 470.40 432.75 470.53 432.31
  A 0.20 0.19 -50.8 0 1 470.89 432.27
  L 471.63 433.65
  Q 471.76 433.89 471.94 433.69
  Q 472.06 433.56 472.11 433.40
  Q 472.12 433.34 472.13 433.40
  Q 472.17 433.59 472.27 433.74
  A 0.14 0.14 0.0 0 0 472.53 433.68
  L 472.65 432.89
  Q 472.68 432.70 472.81 432.56
  Q 473.04 432.32 473.19 432.41
  Q 473.50 432.59 473.77 432.35
  Q 479.99 426.82 487.71 423.69
  Q 489.65 422.90 493.42 419.57
  C 495.90 417.38 498.99 417.33 500.01 413.40
  A 1.15 1.13 -60.6 0 0 499.72 412.33
  Q 498.25 410.84 497.91 408.79
  A 1.78 1.78 0.0 0 0 496.18 407.30
  Q 493.87 407.27 493.01 405.20
  A 1.72 1.60 -83.6 0 0 492.55 404.58
  Q 491.29 403.56 490.19 404.89
  Q 490.16 404.93 490.12 404.89
  Q 490.03 404.80 489.94 404.71
  Q 489.89 404.66 490.00 404.60
  Q 490.13 404.54 490.26 404.48
  A 0.19 0.18 37.1 0 0 490.21 404.13
  L 489.05 403.95
  Q 499.61 395.60 508.18 384.89
  A 1.33 1.33 0.0 0 1 510.29 384.93
  C 520.38 398.63 532.57 408.34 549.22 412.66
  Z
  M 515.5544 409.8870
  A 6.09 6.09 0.0 0 0 509.5178 403.7441
  L 508.6978 403.7369
  A 6.09 6.09 0.0 0 0 502.5549 409.7736
  L 502.4256 424.5930
  A 6.09 6.09 0.0 0 0 508.4622 430.7359
  L 509.2822 430.7431
  A 6.09 6.09 0.0 0 0 515.4251 424.7064
  L 515.5544 409.8870
  Z"
/>
<rect fill="#f3fef3" x="-6.50" y="-13.50" transform="translate(508.99,417.24) rotate(0.5)" width="13.00" height="27.00" rx="6.09"/>
<path fill="#fe292f" d="
  M 489.05 403.95
  L 490.21 404.13
  A 0.19 0.18 37.1 0 1 490.26 404.48
  Q 490.13 404.54 490.00 404.60
  Q 489.89 404.66 489.94 404.71
  Q 490.03 404.80 490.12 404.89
  Q 490.16 404.93 490.19 404.89
  Q 491.29 403.56 492.55 404.58
  A 1.72 1.60 -83.6 0 1 493.01 405.20
  Q 493.87 407.27 496.18 407.30
  A 1.78 1.78 0.0 0 1 497.91 408.79
  Q 498.25 410.84 499.72 412.33
  A 1.15 1.13 -60.6 0 1 500.01 413.40
  C 498.99 417.33 495.90 417.38 493.42 419.57
  Q 489.65 422.90 487.71 423.69
  Q 479.99 426.82 473.77 432.35
  Q 473.50 432.59 473.19 432.41
  Q 473.04 432.32 472.81 432.56
  Q 472.68 432.70 472.65 432.89
  L 472.53 433.68
  A 0.14 0.14 0.0 0 1 472.27 433.74
  Q 472.17 433.59 472.13 433.40
  Q 472.12 433.34 472.11 433.40
  Q 472.06 433.56 471.94 433.69
  Q 471.76 433.89 471.63 433.65
  L 470.89 432.27
  A 0.20 0.19 -50.8 0 0 470.53 432.31
  Q 470.40 432.75 470.52 433.21
  C 464.32 430.79 460.25 434.20 460.12 440.38
  Q 459.94 449.21 461.19 457.39
  Q 460.68 456.96 460.48 458.25
  Q 460.42 458.62 460.05 458.54
  Q 459.02 458.32 458.52 458.81
  Q 455.32 461.95 452.39 463.61
  Q 443.54 468.60 435.51 474.83
  Q 435.11 475.14 435.11 475.64
  Q 435.11 476.57 435.64 477.41
  Q 429.09 473.86 425.76 478.29
  Q 424.36 480.14 424.28 483.74
  Q 424.10 491.37 424.34 498.36
  L 421.29 499.39
  Q 420.81 499.55 420.49 499.94
  Q 413.58 508.54 403.56 513.27
  Q 401.35 514.31 399.81 518.00
  Q 399.61 518.49 399.21 518.14
  Q 399.00 517.97 398.66 518.36
  Q 398.40 518.66 398.57 519.02
  L 398.82 519.57
  A 0.40 0.39 -3.4 0 1 398.34 520.11
  Q 397.57 519.86 397.77 520.60
  Q 397.99 521.46 397.16 521.16
  L 396.18 520.82
  Q 386.32 503.90 380.35 485.33
  Q 380.66 485.06 381.02 485.37
  Q 381.29 485.60 381.20 485.26
  Q 380.61 483.05 380.95 480.80
  Q 381.05 480.19 381.67 480.14
  Q 384.84 479.91 385.70 476.66
  Q 385.80 476.30 386.12 476.12
  Q 388.02 475.04 389.45 473.41
  Q 392.18 470.31 392.25 470.24
  Q 398.84 463.99 406.75 459.50
  Q 406.91 459.41 409.21 458.56
  Q 410.62 458.04 411.30 456.71
  Q 411.77 456.65 412.22 457.14
  Q 412.57 457.53 412.82 457.07
  L 413.52 455.80
  A 0.09 0.09 0.0 0 1 413.69 455.81
  Q 413.73 455.93 413.77 456.06
  Q 413.81 456.17 413.90 456.10
  Q 416.21 454.37 416.34 451.61
  Q 416.36 451.16 416.70 450.85
  Q 417.64 449.98 417.06 448.94
  Q 416.77 448.42 417.29 448.12
  Q 424.67 443.81 430.58 437.68
  C 431.77 436.44 431.97 435.84 432.48 434.23
  Q 432.64 433.74 433.05 433.43
  Q 438.00 429.61 439.29 428.04
  Q 442.08 424.66 443.47 423.61
  A 0.04 0.03 26.3 0 0 443.44 423.56
  Q 443.34 423.53 443.25 423.50
  Q 443.24 423.50 443.30 423.27
  Q 443.56 422.24 444.59 422.24
  Q 445.08 422.24 445.39 421.85
  Q 446.15 420.88 447.28 420.50
  Q 447.64 420.37 447.89 420.08
  L 450.73 416.67
  Q 451.07 416.27 451.60 416.29
  Q 458.38 416.49 464.53 413.65
  Q 477.49 411.04 489.05 403.95
  Z"
/>
<path fill="#7f0c1f" d="
  M 638.20 410.57
  Q 643.40 425.81 643.74 442.07
  Q 641.27 444.33 640.33 447.16
  Q 638.96 451.32 638.91 451.42
  Q 637.11 455.42 635.41 459.48
  A 0.08 0.07 -47.0 0 1 635.27 459.49
  Q 635.21 459.36 635.13 459.23
  Q 634.99 458.99 634.86 459.24
  Q 631.13 466.12 626.77 472.63
  Q 626.58 472.92 626.60 473.63
  Q 626.62 474.13 626.36 474.55
  Q 623.39 479.52 618.65 485.64
  Q 616.57 488.34 611.81 495.04
  Q 610.93 496.28 609.55 499.33
  Q 608.65 501.30 607.11 503.60
  Q 604.06 508.15 601.60 511.39
  Q 598.14 515.94 595.95 519.06
  Q 592.09 524.58 585.54 532.78
  Q 567.59 555.26 550.87 572.06
  C 542.79 580.19 538.67 584.58 531.48 589.75
  Q 531.08 590.04 530.91 590.49
  Q 530.63 591.23 529.51 591.93
  Q 522.87 596.06 516.27 600.25
  Q 515.81 600.54 515.36 600.24
  L 514.94 599.97
  Q 514.57 599.72 514.22 600.00
  Q 507.13 605.47 501.03 612.03
  Q 498.81 614.40 488.42 620.44
  Q 482.23 617.88 475.81 613.55
  Q 489.09 602.72 500.26 590.39
  Q 500.71 589.88 502.85 587.25
  Q 504.19 585.60 505.64 584.26
  C 515.91 587.40 515.57 579.83 515.51 572.92
  Q 516.35 573.11 516.12 571.51
  Q 516.02 570.86 516.67 570.73
  Q 518.04 570.47 518.67 568.99
  A 1.13 1.12 -2.4 0 1 519.21 568.41
  C 520.03 567.98 520.99 567.75 521.62 567.12
  Q 525.57 563.15 530.10 559.88
  A 0.17 0.17 0.0 0 0 530.13 559.63
  Q 530.04 559.53 529.95 559.45
  Q 529.92 559.42 529.95 559.39
  C 536.28 554.90 540.64 549.41 546.42 544.67
  Q 546.66 544.46 546.65 544.15
  Q 546.64 543.88 546.90 543.90
  Q 548.66 544.02 548.70 542.44
  Q 557.01 543.26 557.06 535.25
  Q 557.14 525.03 557.37 521.16
  L 557.63 533.11
  A 0.18 0.17 -44.7 0 0 557.98 533.11
  L 558.18 528.09
  Q 558.21 527.55 558.72 527.70
  Q 558.97 527.78 559.21 527.84
  Q 559.64 527.94 559.93 527.61
  L 579.57 505.36
  A 0.20 0.19 42.0 0 1 579.85 505.35
  L 580.10 505.60
  A 0.16 0.16 0.0 0 0 580.35 505.58
  L 583.37 501.23
  Q 588.62 504.28 592.35 502.02
  C 594.85 500.51 595.13 497.99 595.14 495.25
  Q 595.19 488.38 595.28 481.50
  Q 595.30 479.53 593.01 477.20
  Q 594.69 475.90 596.56 474.77
  Q 598.47 473.62 599.92 472.16
  Q 603.43 468.62 607.50 465.70
  Q 607.94 465.38 607.87 464.84
  Q 607.59 462.72 609.43 461.79
  Q 609.88 461.56 610.06 461.08
  L 611.65 456.99
  Q 615.76 454.61 615.74 451.25
  Q 615.70 443.34 615.94 435.06
  L 617.12 442.62
  A 0.36 0.36 0.0 0 0 617.70 442.85
  Q 620.08 440.93 621.42 438.30
  C 623.53 434.18 625.95 430.29 628.38 426.35
  Q 628.61 425.97 628.32 425.63
  Q 628.04 425.31 628.32 424.85
  Q 630.75 420.86 633.52 417.11
  Q 633.56 417.04 635.60 413.70
  Q 636.56 412.13 638.20 410.57
  Z"
/>
<path fill="#f3fef3" d="
  M 411.30 456.71
  Q 402.72 458.71 402.42 450.26
  C 402.27 446.14 401.04 435.29 403.29 431.88
  C 404.91 429.43 407.89 428.34 410.68 429.63
  Q 414.81 431.53 414.95 437.24
  Q 415.10 443.79 415.02 450.32
  C 414.98 453.40 413.97 455.42 411.30 456.71
  Z"
/>
<path fill="#f3fef3" d="
  M 615.94 435.06
  Q 615.70 443.34 615.74 451.25
  Q 615.76 454.61 611.65 456.99
  Q 603.33 458.84 603.01 450.23
  Q 602.77 443.84 602.78 437.42
  Q 602.79 433.59 604.05 431.86
  C 607.35 427.37 615.00 429.02 615.94 435.06
  Z"
/>
<path fill="#f3fef3" d="
  M 470.52 433.21
  Q 473.68 435.24 473.73 437.74
  Q 473.97 450.41 473.80 454.00
  Q 473.61 457.95 469.49 459.44
  Q 465.31 460.95 461.19 457.39
  Q 459.94 449.21 460.12 440.38
  C 460.25 434.20 464.32 430.79 470.52 433.21
  Z"
/>
<rect fill="#f3fef3" x="-6.60" y="-13.63" transform="translate(550.61,445.81) rotate(-0.2)" width="13.20" height="27.26" rx="6.22"/>
<path fill="#591220" d="
  M 643.74 442.07
  C 644.79 471.26 634.37 500.43 618.58 526.11
  C 610.92 538.57 604.48 548.60 595.36 559.90
  C 579.22 579.92 564.55 595.92 545.61 610.61
  C 528.47 623.90 509.30 628.50 488.42 620.44
  Q 498.81 614.40 501.03 612.03
  Q 507.13 605.47 514.22 600.00
  Q 514.57 599.72 514.94 599.97
  L 515.36 600.24
  Q 515.81 600.54 516.27 600.25
  Q 522.87 596.06 529.51 591.93
  Q 530.63 591.23 530.91 590.49
  Q 531.08 590.04 531.48 589.75
  C 538.67 584.58 542.79 580.19 550.87 572.06
  Q 567.59 555.26 585.54 532.78
  Q 592.09 524.58 595.95 519.06
  Q 598.14 515.94 601.60 511.39
  Q 604.06 508.15 607.11 503.60
  Q 608.65 501.30 609.55 499.33
  Q 610.93 496.28 611.81 495.04
  Q 616.57 488.34 618.65 485.64
  Q 623.39 479.52 626.36 474.55
  Q 626.62 474.13 626.60 473.63
  Q 626.58 472.92 626.77 472.63
  Q 631.13 466.12 634.86 459.24
  Q 634.99 458.99 635.13 459.23
  Q 635.21 459.36 635.27 459.49
  A 0.08 0.07 -47.0 0 0 635.41 459.48
  Q 637.11 455.42 638.91 451.42
  Q 638.96 451.32 640.33 447.16
  Q 641.27 444.33 643.74 442.07
  Z"
/>
<path fill="#f3fef3" d="
  M 435.64 477.41
  C 436.54 478.74 437.18 479.62 437.21 481.32
  C 437.37 488.63 438.33 499.14 434.59 501.78
  C 430.63 504.58 426.34 502.71 424.34 498.36
  Q 424.10 491.37 424.28 483.74
  Q 424.36 480.14 425.76 478.29
  Q 429.09 473.86 435.64 477.41
  Z"
/>
<path fill="#f3fef3" d="
  M 593.01 477.20
  Q 595.30 479.53 595.28 481.50
  Q 595.19 488.38 595.14 495.25
  C 595.13 497.99 594.85 500.51 592.35 502.02
  Q 588.62 504.28 583.37 501.23
  Q 581.62 492.10 582.06 482.22
  C 582.33 476.16 588.02 474.64 593.01 477.20
  Z"
/>
<path fill="#f3fef3" d="
  M 503.03 478.50
  Q 503.58 478.10 503.38 478.03
  C 509.05 474.76 515.67 476.53 515.38 483.61
  Q 515.11 490.24 515.19 496.74
  C 515.28 505.26 502.27 506.36 502.00 496.08
  C 501.82 489.44 501.08 481.55 503.03 478.50
  Z"
/>
<path fill="#003433" d="
  M 689.62 635.87
  C 679.70 651.63 664.51 661.11 645.89 661.11
  Q 514.69 661.16 383.51 661.09
  Q 365.99 661.08 363.53 660.74
  C 342.57 657.85 325.63 639.96 321.08 619.98
  Q 319.66 613.77 319.71 600.44
  Q 319.87 555.92 319.74 511.42
  Q 319.71 502.77 321.14 498.75
  C 327.27 481.50 353.50 483.42 357.13 501.48
  Q 357.60 503.82 357.65 514.43
  Q 357.85 558.40 357.66 602.38
  Q 357.63 609.12 359.01 612.44
  C 362.34 620.48 368.90 622.47 377.51 622.48
  Q 417.16 622.57 456.48 622.36
  A 3.04 3.03 66.6 0 1 458.60 623.20
  C 486.35 649.68 530.64 649.56 558.64 623.42
  A 2.75 2.74 23.1 0 1 560.49 622.68
  Q 598.07 622.41 636.11 622.53
  C 646.56 622.56 654.57 622.23 658.48 612.48
  Q 659.88 608.98 659.90 601.32
  Q 660.01 554.66 659.73 508.01
  Q 659.63 490.69 675.68 487.26
  C 683.06 485.68 690.13 488.75 694.49 494.88
  Q 698.16 500.02 698.17 505.87
  Q 698.22 553.56 698.11 601.26
  C 698.08 615.82 696.79 624.50 689.62 635.87
  Z"
/>
<path fill="#f3fef3" d="
  M 557.37 521.16
  Q 557.14 525.03 557.06 535.25
  Q 557.01 543.26 548.70 542.44
  C 545.30 541.32 544.01 538.87 543.95 535.22
  Q 543.83 528.33 543.97 521.43
  Q 544.02 518.56 545.32 517.08
  C 549.30 512.56 556.72 514.94 557.37 521.16
  Z"
/>
<path fill="#f3fef3" d="
  M 469.43 515.51
  C 472.94 516.70 473.98 519.00 474.00 522.74
  Q 474.04 528.98 473.99 535.25
  C 473.95 540.35 471.93 543.41 466.51 542.65
  Q 461.03 541.87 460.96 536.25
  Q 460.85 527.47 460.68 518.84
  Q 464.08 514.00 469.43 515.51
  Z"
/>
<path fill="#f3fef3" d="
  M 515.51 572.92
  C 515.57 579.83 515.91 587.40 505.64 584.26
  Q 502.89 582.35 502.76 579.50
  Q 502.60 576.22 502.71 564.63
  Q 502.74 561.36 504.05 559.71
  C 507.58 555.26 515.31 558.12 515.38 564.25
  Q 515.43 568.64 515.51 572.92
  Z"
/>
<path fill="#5aa10f" d="
  M 727.60 683.83
  C 725.02 676.63 728.63 668.85 736.94 670.24
  C 744.89 671.57 748.87 683.54 740.12 687.43
  C 736.35 689.11 729.31 688.60 727.60 683.83
  Z
  M 740.6397 685.2815
  A 7.93 7.63 51.1 0 0 741.5980 674.3186
  A 7.93 7.63 51.1 0 0 730.6803 672.9385
  A 7.93 7.63 51.1 0 0 729.7220 683.9014
  A 7.93 7.63 51.1 0 0 740.6397 685.2815
  Z"
/>
<path fill="#f3fef3" d="
  M 740.6397 685.2815
  A 7.93 7.63 51.1 0 1 729.7220 683.9014
  A 7.93 7.63 51.1 0 1 730.6803 672.9385
  A 7.93 7.63 51.1 0 1 741.5980 674.3186
  A 7.93 7.63 51.1 0 1 740.6397 685.2815
  Z
  M 738.03 679.33
  C 742.93 675.35 735.48 670.50 732.66 674.56
  C 731.50 676.23 731.46 680.66 731.85 682.26
  C 733.06 687.29 741.17 685.25 737.89 680.22
  Q 737.56 679.72 738.03 679.33
  Z"
/>
<path fill="#5aa10f" d="
  M 737.89 680.22
  C 741.17 685.25 733.06 687.29 731.85 682.26
  C 731.46 680.66 731.50 676.23 732.66 674.56
  C 735.48 670.50 742.93 675.35 738.03 679.33
  Q 737.56 679.72 737.89 680.22
  Z
  M 737.66 676.56
  A 2.08 2.08 0.0 0 0 735.58 674.48
  A 2.08 2.08 0.0 0 0 733.50 676.56
  A 2.08 2.08 0.0 0 0 735.58 678.64
  A 2.08 2.08 0.0 0 0 737.66 676.56
  Z
  M 733.99 679.25
  L 733.76 679.04
  Q 733.30 678.61 733.13 679.22
  Q 732.13 682.94 735.22 683.94
  A 1.60 1.59 84.5 0 0 737.10 681.65
  Q 736.29 680.17 734.70 679.67
  Q 734.30 679.54 733.99 679.25
  Z"
/>
<circle fill="#f3fef3" cx="735.58" cy="676.56" r="2.08"/>
<path fill="#f3fef3" d="
  M 734.70 679.67
  Q 736.29 680.17 737.10 681.65
  A 1.60 1.59 84.5 0 1 735.22 683.94
  Q 732.13 682.94 733.13 679.22
  Q 733.30 678.61 733.76 679.04
  L 733.99 679.25
  Q 734.30 679.54 734.70 679.67
  Z"
/>
<path fill="#e01827" d="
  M 552.30 721.35
  Q 551.78 721.46 551.42 721.91
  Q 551.15 722.26 551.32 722.66
  Q 551.67 723.52 551.31 724.29
  Q 551.13 724.69 550.70 724.79
  L 549.75 725.00
  Q 549.27 725.11 548.93 725.45
  Q 547.63 726.74 545.50 726.76
  Q 540.16 726.82 537.41 723.84
  C 532.77 713.82 535.93 703.67 545.52 698.55
  Q 551.35 695.43 559.12 695.45
  Q 569.52 695.48 578.15 702.94
  A 2.11 2.10 41.6 0 1 578.33 705.94
  L 572.39 712.48
  Q 572.03 712.88 571.58 712.59
  Q 567.49 709.99 563.02 708.56
  C 557.77 706.88 549.27 708.11 548.48 714.75
  Q 548.01 718.67 552.30 721.35
  Z"
/>
<path fill="#fe292f" d="
  M 296.25 710.55
  Q 293.46 712.44 293.37 714.00
  Q 293.21 717.05 293.71 719.62
  Q 293.79 720.05 293.47 720.34
  L 289.82 723.61
  A 0.89 0.88 -59.2 0 1 289.04 723.81
  L 284.61 722.72
  Q 284.33 722.66 284.25 722.93
  Q 284.09 723.45 283.52 724.04
  Q 280.47 718.07 281.65 711.97
  C 284.00 699.91 296.69 694.37 308.52 695.44
  Q 318.40 696.34 324.61 703.96
  A 1.91 1.91 0.0 0 1 324.50 706.50
  L 318.44 712.71
  A 0.99 0.98 40.1 0 1 317.14 712.82
  Q 305.81 704.33 296.25 710.55
  Z"
/>
<path fill="#fe292f" d="
  M 353.62 731.47
  Q 352.95 731.80 352.61 731.06
  A 0.29 0.20 40.7 0 0 352.13 731.01
  Q 352.13 731.13 352.11 731.28
  Q 352.05 731.82 351.53 731.96
  Q 349.38 732.54 347.65 733.89
  Q 347.32 734.15 346.91 734.23
  L 342.25 735.19
  A 0.89 0.88 -1.0 0 0 341.55 735.91
  Q 341.32 737.31 340.60 738.15
  L 340.56 726.33
  Q 340.56 725.79 340.01 725.79
  L 333.01 725.76
  Q 332.51 725.76 332.51 725.26
  L 332.52 714.79
  A 0.59 0.58 -0.5 0 1 333.10 714.21
  L 339.86 714.19
  A 0.81 0.81 0.0 0 0 340.67 713.40
  L 340.95 703.01
  A 2.41 2.41 0.0 0 1 343.35 700.66
  L 351.49 700.63
  A 2.10 2.10 0.0 0 1 353.60 702.75
  L 353.50 713.76
  A 0.51 0.51 0.0 0 0 354.01 714.27
  L 364.08 714.28
  A 1.23 1.23 0.0 0 1 365.31 715.55
  L 365.04 724.38
  A 1.42 1.42 0.0 0 1 363.62 725.76
  L 354.22 725.77
  A 0.61 0.60 -0.0 0 0 353.61 726.37
  L 353.62 731.47
  Z"
/>
<path fill="#e01827" d="
  M 296.25 710.55
  C 290.68 721.32 306.31 723.68 313.50 725.49
  C 329.00 729.39 333.82 747.37 321.93 757.96
  Q 314.76 764.34 303.50 763.93
  Q 292.42 763.53 282.29 756.00
  C 276.19 751.46 281.80 747.05 285.89 744.93
  C 288.66 743.49 291.52 746.80 293.67 748.11
  C 298.23 750.90 303.24 751.87 308.43 750.53
  C 313.47 749.23 316.98 743.25 311.81 739.39
  Q 309.47 737.64 307.01 736.95
  C 297.40 734.27 288.58 732.57 283.52 724.04
  Q 284.09 723.45 284.25 722.93
  Q 284.33 722.66 284.61 722.72
  L 289.04 723.81
  A 0.89 0.88 -59.2 0 0 289.82 723.61
  L 293.47 720.34
  Q 293.79 720.05 293.71 719.62
  Q 293.21 717.05 293.37 714.00
  Q 293.46 712.44 296.25 710.55
  Z"
/>
<path fill="#a40d20" d="
  M 663.68 734.94
  Q 664.90 728.51 659.47 725.80
  C 654.07 723.11 647.67 724.94 642.06 727.98
  A 0.71 0.71 0.0 0 1 641.18 727.81
  Q 639.04 725.20 637.39 721.72
  C 636.50 719.86 636.80 718.83 638.53 717.70
  C 649.98 710.27 669.04 710.50 675.07 724.71
  Q 676.55 728.19 676.66 734.49
  Q 676.87 746.08 676.65 757.65
  C 676.47 766.79 666.85 764.94 663.12 759.77
  A 0.57 0.56 53.4 0 0 662.32 759.65
  Q 655.84 764.57 647.77 763.98
  C 636.78 763.17 631.48 752.32 634.83 742.53
  C 638.72 731.15 654.36 731.53 663.22 735.18
  Q 663.60 735.34 663.68 734.94
  Z
  M 647.17 745.20
  Q 645.64 748.90 648.00 751.21
  C 651.55 754.67 658.68 753.28 662.03 750.30
  C 670.25 743.02 650.44 737.27 647.17 745.20
  Z"
/>
<path fill="#e01827" d="
  M 447.52 721.36
  L 447.26 727.98
  A 0.34 0.34 0.0 0 1 446.74 728.26
  Q 446.12 727.86 445.69 728.54
  Q 444.64 730.16 442.85 729.66
  A 0.81 0.80 -59.3 0 0 442.08 729.86
  Q 440.54 731.41 439.43 729.60
  C 438.11 727.47 437.65 725.78 435.47 724.76
  Q 434.42 724.27 433.41 723.73
  Q 431.57 722.73 430.23 722.53
  Q 425.08 721.76 420.62 724.59
  Q 420.46 724.69 420.41 724.83
  Q 420.36 724.97 420.37 725.13
  Q 420.42 725.64 420.81 725.30
  Q 421.04 725.10 421.27 724.95
  Q 421.47 724.81 421.74 724.77
  Q 426.66 723.96 430.99 724.97
  Q 422.43 723.45 416.46 728.78
  A 0.34 0.34 0.0 0 1 415.96 728.73
  L 410.37 720.90
  A 1.19 1.19 0.0 0 1 410.62 719.27
  Q 421.11 711.21 434.25 713.47
  Q 443.06 714.99 447.52 721.36
  Z"
/>
<path fill="#ca1b28" d="
  M 604.28 748.03
  L 603.55 747.78
  Q 603.23 747.66 602.97 747.89
  Q 601.33 749.33 599.51 750.52
  Q 596.40 752.55 595.78 752.79
  Q 593.51 753.67 590.86 752.15
  Q 585.37 743.61 587.47 734.00
  Q 591.96 713.48 611.90 713.01
  C 618.88 712.84 624.92 715.41 628.98 720.90
  A 1.57 1.56 -42.3 0 1 628.88 722.89
  L 622.82 729.54
  Q 622.49 729.91 622.05 729.70
  Q 620.12 728.79 618.30 727.82
  C 603.67 720.06 594.81 737.30 604.28 748.03
  Z"
/>
<path fill="#a40d20" d="
  M 724.17 716.71
  L 726.80 720.19
  A 1.71 1.70 62.0 0 1 726.00 722.83
  Q 720.40 724.76 714.59 724.45
  Q 714.11 724.43 713.68 724.22
  Q 712.83 723.79 712.18 724.35
  Q 711.87 724.62 711.46 724.62
  L 710.53 724.62
  Q 710.14 724.62 710.05 725.01
  Q 709.86 725.87 708.36 726.05
  C 701.90 727.16 700.29 730.75 700.20 737.13
  Q 700.03 748.59 700.02 760.00
  C 700.01 764.39 687.34 766.21 687.27 759.75
  Q 687.05 739.80 686.99 719.85
  C 686.98 715.08 688.99 713.02 693.73 713.38
  Q 699.67 713.84 700.18 719.17
  Q 700.23 719.72 700.61 719.32
  C 706.98 712.54 716.56 710.64 724.17 716.71
  Z"
/>
<path fill="#e01827" d="
  M 387.06 719.66
  C 391.72 715.58 394.92 713.13 401.25 713.12
  C 404.52 713.11 408.63 715.03 407.02 719.15
  Q 405.41 723.23 403.35 727.12
  A 1.32 1.32 0.0 0 1 401.87 727.77
  C 392.50 725.37 387.51 731.93 387.39 740.50
  Q 387.26 749.62 387.21 758.74
  C 387.18 764.59 378.24 765.35 375.36 761.63
  Q 374.20 760.13 374.19 757.12
  Q 374.10 737.41 373.84 717.76
  C 373.76 711.70 388.25 712.05 386.03 718.98
  A 0.64 0.64 0.0 0 0 387.06 719.66
  Z"
/>
<path fill="#e01827" d="
  M 473.54 726.45
  L 472.14 724.26
  A 0.29 0.28 -63.8 0 0 471.62 724.44
  Q 471.93 728.26 473.03 731.11
  Q 473.55 732.45 473.58 733.58
  C 473.61 734.56 472.98 735.13 473.06 736.23
  Q 473.10 736.73 472.69 737.02
  Q 471.65 737.75 471.97 738.81
  Q 472.13 739.35 471.89 739.86
  L 470.51 742.89
  Q 470.29 743.38 469.75 743.38
  L 467.89 743.38
  Q 467.32 743.38 467.11 743.90
  Q 466.45 745.52 466.19 744.80
  Q 462.44 732.23 458.34 719.97
  C 456.27 713.76 463.70 712.05 467.70 713.94
  C 471.02 715.50 472.70 723.13 473.54 726.45
  Z"
/>
<path fill="#ca1b28" d="
  M 466.19 744.80
  Q 466.45 745.52 467.11 743.90
  Q 467.32 743.38 467.89 743.38
  L 469.75 743.38
  Q 470.29 743.38 470.51 742.89
  L 471.89 739.86
  Q 472.13 739.35 471.97 738.81
  Q 471.65 737.75 472.69 737.02
  Q 473.10 736.73 473.06 736.23
  C 472.98 735.13 473.61 734.56 473.58 733.58
  Q 473.55 732.45 473.03 731.11
  Q 471.93 728.26 471.62 724.44
  A 0.29 0.28 -63.8 0 1 472.14 724.26
  L 473.54 726.45
  L 478.67 743.33
  A 0.48 0.47 47.9 0 0 479.56 743.38
  Q 484.56 731.12 487.85 718.14
  C 488.87 714.13 491.99 713.32 495.70 713.41
  C 499.73 713.51 501.16 716.01 502.20 719.77
  Q 505.41 731.39 509.90 742.43
  A 0.43 0.42 -48.3 0 0 510.70 742.38
  Q 513.59 732.10 516.62 721.82
  C 518.42 715.70 520.24 711.55 527.47 714.02
  C 531.75 715.48 530.65 720.79 529.43 724.37
  Q 524.17 739.84 519.38 755.47
  C 518.12 759.57 516.55 764.03 511.26 764.31
  Q 505.15 764.63 503.39 758.95
  Q 499.79 747.35 495.36 735.91
  A 0.55 0.54 -46.0 0 0 494.34 735.93
  Q 490.77 746.02 487.34 756.23
  C 485.56 761.52 483.71 764.78 477.66 763.74
  C 475.81 763.43 473.40 763.68 472.29 761.40
  Q 469.21 755.10 466.19 744.80
  Z"
/>
<path fill="#7f0c1f" d="
  M 724.17 716.71
  Q 731.88 722.94 731.94 733.01
  Q 732.00 745.49 731.87 758.00
  Q 731.84 760.62 730.85 761.76
  C 728.34 764.65 723.08 764.48 720.58 762.01
  Q 719.28 760.72 719.23 757.90
  Q 719.06 748.44 719.05 739.03
  C 719.05 730.95 717.73 725.36 708.36 726.05
  Q 709.86 725.87 710.05 725.01
  Q 710.14 724.62 710.53 724.62
  L 711.46 724.62
  Q 711.87 724.62 712.18 724.35
  Q 712.83 723.79 713.68 724.22
  Q 714.11 724.43 714.59 724.45
  Q 720.40 724.76 726.00 722.83
  A 1.71 1.70 62.0 0 0 726.80 720.19
  L 724.17 716.71
  Z"
/>
<path fill="#ca1b28" d="
  M 552.30 721.35
  L 570.75 727.60
  Q 570.20 727.93 569.68 727.75
  Q 569.27 727.60 569.09 728.00
  Q 566.74 733.26 562.01 734.06
  Q 558.70 734.62 552.06 733.57
  Q 551.55 733.49 551.38 733.97
  Q 551.29 734.23 551.55 734.46
  Q 541.49 731.94 537.41 723.84
  Q 540.16 726.82 545.50 726.76
  Q 547.63 726.74 548.93 725.45
  Q 549.27 725.11 549.75 725.00
  L 550.70 724.79
  Q 551.13 724.69 551.31 724.29
  Q 551.67 723.52 551.32 722.66
  Q 551.15 722.26 551.42 721.91
  Q 551.78 721.46 552.30 721.35
  Z"
/>
<path fill="#ca1b28" d="
  M 447.52 721.36
  C 451.63 727.61 451.18 731.64 451.25 740.71
  Q 451.32 749.97 451.22 759.25
  C 451.15 765.93 441.79 764.38 438.87 760.61
  A 1.08 1.07 -35.3 0 0 437.45 760.37
  C 428.67 765.92 416.39 765.66 410.53 756.35
  C 407.01 750.77 407.38 742.42 412.32 737.67
  C 418.53 731.70 430.01 732.28 437.53 735.00
  A 0.51 0.51 0.0 0 0 438.21 734.55
  Q 438.66 727.37 430.99 724.97
  Q 426.66 723.96 421.74 724.77
  Q 421.47 724.81 421.27 724.95
  Q 421.04 725.10 420.81 725.30
  Q 420.42 725.64 420.37 725.13
  Q 420.36 724.97 420.41 724.83
  Q 420.46 724.69 420.62 724.59
  Q 425.08 721.76 430.23 722.53
  Q 431.57 722.73 433.41 723.73
  Q 434.42 724.27 435.47 724.76
  C 437.65 725.78 438.11 727.47 439.43 729.60
  Q 440.54 731.41 442.08 729.86
  A 0.81 0.80 -59.3 0 1 442.85 729.66
  Q 444.64 730.16 445.69 728.54
  Q 446.12 727.86 446.74 728.26
  A 0.34 0.34 0.0 0 0 447.26 727.98
  L 447.52 721.36
  Z
  M 438.2195 746.5791
  A 8.82 5.88 -2.8 0 0 429.1228 741.1370
  A 8.82 5.88 -2.8 0 0 420.6005 747.4409
  A 8.82 5.88 -2.8 0 0 429.6972 752.8830
  A 8.82 5.88 -2.8 0 0 438.2195 746.5791
  Z"
/>
<path fill="#a40d20" d="
  M 570.75 727.60
  C 580.61 732.08 584.23 742.96 579.39 752.41
  C 568.04 774.56 527.92 758.48 535.04 749.77
  Q 537.24 747.08 540.59 745.20
  A 2.03 2.02 -38.4 0 1 542.95 745.47
  Q 548.23 750.24 555.56 751.38
  C 559.67 752.02 566.47 750.53 567.88 745.90
  C 570.36 737.70 556.99 735.80 551.55 734.46
  Q 551.29 734.23 551.38 733.97
  Q 551.55 733.49 552.06 733.57
  Q 558.70 734.62 562.01 734.06
  Q 566.74 733.26 569.09 728.00
  Q 569.27 727.60 569.68 727.75
  Q 570.20 727.93 570.75 727.60
  Z"
/>
<path fill="#e01827" d="
  M 353.62 731.47
  Q 353.45 738.73 353.54 745.99
  C 353.61 751.29 357.39 752.15 361.80 751.19
  C 366.35 750.19 366.11 756.33 365.88 758.98
  C 365.64 761.58 363.89 762.86 361.54 763.39
  C 350.35 765.90 340.95 760.54 340.47 748.96
  Q 340.24 743.38 340.60 738.15
  Q 341.32 737.31 341.55 735.91
  A 0.89 0.88 -1.0 0 1 342.25 735.19
  L 346.91 734.23
  Q 347.32 734.15 347.65 733.89
  Q 349.38 732.54 351.53 731.96
  Q 352.05 731.82 352.11 731.28
  Q 352.13 731.13 352.13 731.01
  A 0.29 0.20 40.7 0 1 352.61 731.06
  Q 352.95 731.80 353.62 731.47
  Z"
/>
<ellipse fill="#f3fef3" cx="0.00" cy="0.00" transform="translate(429.41,747.01) rotate(-2.8)" rx="8.82" ry="5.88"/>
<path fill="#f3fef3" d="
  M 647.17 745.20
  C 650.44 737.27 670.25 743.02 662.03 750.30
  C 658.68 753.28 651.55 754.67 648.00 751.21
  Q 645.64 748.90 647.17 745.20
  Z"
/>
<path fill="#a40d20" d="
  M 604.28 748.03
  Q 611.99 754.44 620.30 747.98
  Q 621.38 747.14 623.41 748.37
  C 625.84 749.84 628.61 751.84 629.96 754.27
  A 1.16 1.15 -48.2 0 1 630.01 755.28
  Q 629.11 757.38 627.70 758.45
  C 615.73 767.48 598.79 765.56 590.86 752.15
  Q 593.51 753.67 595.78 752.79
  Q 596.40 752.55 599.51 750.52
  Q 601.33 749.33 602.97 747.89
  Q 603.23 747.66 603.55 747.78
  L 604.28 748.03
  Z"
/>
</svg>
